<?xml version="1.0" encoding="utf-8"?>
<!-- Generator: Adobe Illustrator 24.1.0, SVG Export Plug-In . SVG Version: 6.00 Build 0)  -->
<svg version="1.1" xmlns="http://www.w3.org/2000/svg" xmlns:xlink="http://www.w3.org/1999/xlink" x="0px" y="0px"
	 viewBox="0 0 2200 1600" style="enable-background:new 0 0 2200 1600;" xml:space="preserve">
<style type="text/css">
	.st0{fill:#FFFFFF;}
	.st1{fill:url(#SVGID_1_);}
	.st2{fill:#E8ECF7;}
	.st3{fill:#F1F1F6;}
	.st4{fill:url(#SVGID_2_);}
	.st5{fill:url(#SVGID_3_);}
	.st6{fill:url(#SVGID_4_);}
	.st7{fill:url(#SVGID_5_);}
	.st8{fill:url(#SVGID_6_);}
	.st9{fill:url(#SVGID_7_);}
	.st10{fill:url(#SVGID_8_);}
	.st11{fill:url(#SVGID_9_);}
	.st12{fill:url(#SVGID_10_);}
	.st13{fill:url(#SVGID_11_);}
	.st14{fill:url(#SVGID_12_);}
	.st15{fill:url(#SVGID_13_);}
	.st16{fill:url(#SVGID_14_);}
	.st17{fill:url(#SVGID_15_);}
	.st18{fill:url(#SVGID_16_);}
	.st19{fill:url(#SVGID_17_);}
	.st20{fill:url(#SVGID_18_);}
	.st21{fill:#F6F6FB;}
	.st22{fill:url(#SVGID_19_);}
	.st23{fill:url(#SVGID_20_);}
	.st24{fill:#D1D7F3;}
	.st25{fill:#6B67E9;}
	.st26{fill:#FC780B;}
	.st27{fill:#EF4E16;}
	.st28{fill:#FD9009;}
	.st29{fill:#CED3F8;}
	.st30{fill:url(#SVGID_21_);}
	.st31{fill:url(#SVGID_22_);}
	.st32{fill:#DFE4F4;}
	.st33{fill:#BBC0E6;}
	.st34{fill:url(#SVGID_23_);}
	.st35{fill:url(#SVGID_24_);}
	.st36{fill:url(#SVGID_25_);}
	.st37{fill:url(#SVGID_26_);}
	.st38{fill:url(#SVGID_27_);}
	.st39{fill:#DAE0F5;}
	.st40{fill:url(#SVGID_28_);}
	.st41{fill:url(#SVGID_29_);}
	.st42{fill:url(#SVGID_30_);}
	.st43{fill:url(#SVGID_31_);}
	.st44{fill:#807DFB;}
	.st45{fill:url(#SVGID_32_);}
	.st46{fill:url(#SVGID_33_);}
	.st47{fill:url(#SVGID_34_);}
	.st48{fill:url(#SVGID_35_);}
	.st49{fill:url(#SVGID_36_);}
	.st50{fill:#D0D4F6;}
	.st51{fill:#BDC1E4;}
	.st52{fill:url(#SVGID_37_);}
	.st53{fill:url(#SVGID_38_);}
	.st54{fill:url(#SVGID_39_);}
	.st55{fill:#1E1C6B;}
	.st56{fill:#FACFA7;}
	.st57{fill:url(#SVGID_40_);}
	.st58{fill:url(#SVGID_41_);}
	.st59{fill:#20196F;}
	.st60{fill:url(#SVGID_42_);}
	.st61{fill:url(#SVGID_43_);}
	.st62{fill:url(#SVGID_44_);}
	.st63{fill:#FCD1A9;}
	.st64{fill:url(#SVGID_45_);}
	.st65{fill:url(#SVGID_46_);}
	.st66{fill:url(#SVGID_47_);}
	.st67{fill:url(#SVGID_48_);}
	.st68{fill:url(#SVGID_49_);}
	.st69{fill:url(#SVGID_50_);}
	.st70{fill:url(#SVGID_51_);}
	.st71{fill:url(#SVGID_52_);}
	.st72{fill:url(#SVGID_53_);}
	.st73{fill:url(#SVGID_54_);}
	.st74{fill:url(#SVGID_55_);}
	.st75{fill:url(#SVGID_56_);}
	.st76{fill:url(#SVGID_57_);}
	.st77{fill:url(#SVGID_58_);}
	.st78{fill:url(#SVGID_59_);}
	.st79{fill:url(#SVGID_60_);}
	.st80{fill:url(#SVGID_61_);}
	.st81{fill:#C6290A;}
	.st82{fill:url(#SVGID_62_);}
	.st83{fill:url(#SVGID_63_);}
	.st84{fill:#A3A9D0;}
</style>
<g id="Background">
	<rect x="-400" y="-200" class="st0" width="3000" height="2000"/>
</g>
<g id="Name">
</g>
<g id="Wave_shape">
	<linearGradient id="SVGID_1_" gradientUnits="userSpaceOnUse" x1="1670.9856" y1="1405.8373" x2="573.5884" y2="539.731">
		<stop  offset="0" style="stop-color:#EFEFF3"/>
		<stop  offset="0.4995" style="stop-color:#FBFBFC"/>
		<stop  offset="1" style="stop-color:#FFFFFF"/>
	</linearGradient>
	<path class="st1" d="M1712.7,1394.9c585.8-253.8,337-796.6-68-814.5C765.2,541.5,1170.5,197,899.8,215.5
		c-249.7,17-237.6,343-342.8,455.8c-120,128.5-340.2,100.9-335.5,333.1C231.5,1500.9,1200.4,1616.8,1712.7,1394.9z"/>
</g>
<g id="Abstract_shapes">
	<path class="st2" d="M823.3,361.9l37.6,81c2.3,4.9,8.3,6.8,12.9,4.1l102.8-59.3c7.5-4.3,5.4-15.7-3.2-17L833.1,349
		C825.8,347.8,820.2,355.2,823.3,361.9z"/>
	<path class="st2" d="M1238.2,1461.8c-30.7-17.7-80.5-17.7-111.2,0c-30.7,17.7-30.7,46.5,0,64.2c30.7,17.7,80.5,17.7,111.2,0
		C1268.9,1508.3,1268.9,1479.6,1238.2,1461.8z M1153.2,1510.9c-16.2-9.4-16.2-24.5,0-33.9c16.2-9.4,42.5-9.4,58.7,0
		c16.2,9.4,16.2,24.5,0,33.9C1195.8,1520.3,1169.5,1520.3,1153.2,1510.9z"/>
	<g>
		<path class="st2" d="M536.1,516.6c5.4,3.1,14.2,3.1,19.6,0c5.4-3.1,5.4-8.2,0-11.3c-5.4-3.1-14.2-3.1-19.6,0
			C530.7,508.4,530.7,513.5,536.1,516.6z"/>
		<path class="st2" d="M584,544.3c5.4,3.1,14.2,3.1,19.6,0c5.4-3.1,5.4-8.2,0-11.3c-5.4-3.1-14.2-3.1-19.6,0
			C578.6,536.1,578.6,541.2,584,544.3z"/>
		<path class="st2" d="M632,572c5.4,3.1,14.2,3.1,19.6,0c5.4-3.1,5.4-8.2,0-11.3c-5.4-3.1-14.2-3.1-19.6,0
			C626.6,563.8,626.6,568.9,632,572z"/>
		<ellipse class="st2" cx="689.8" cy="594" rx="13.9" ry="8"/>
		<path class="st2" d="M488.1,544.3c5.4,3.1,14.2,3.1,19.6,0c5.4-3.1,5.4-8.2,0-11.3c-5.4-3.1-14.2-3.1-19.6,0
			C482.7,536.1,482.7,541.2,488.1,544.3z"/>
		<path class="st2" d="M536.1,572c5.4,3.1,14.2,3.1,19.6,0c5.4-3.1,5.4-8.2,0-11.3c-5.4-3.1-14.2-3.1-19.6,0
			C530.7,563.8,530.7,568.9,536.1,572z"/>
		<path class="st2" d="M584,599.7c5.4,3.1,14.2,3.1,19.6,0c5.4-3.1,5.4-8.2,0-11.3c-5.4-3.1-14.2-3.1-19.6,0
			C578.6,591.5,578.6,596.6,584,599.7z"/>
		<path class="st2" d="M651.6,616.1c-5.4-3.1-14.2-3.1-19.6,0c-5.4,3.1-5.4,8.2,0,11.3c5.4,3.1,14.2,3.1,19.6,0
			C657,624.3,657,619.2,651.6,616.1z"/>
		<path class="st2" d="M440.1,572c5.4,3.1,14.2,3.1,19.6,0c5.4-3.1,5.4-8.2,0-11.3c-5.4-3.1-14.2-3.1-19.6,0
			C434.7,563.8,434.7,568.9,440.1,572z"/>
		<path class="st2" d="M488.1,599.7c5.4,3.1,14.2,3.1,19.6,0c5.4-3.1,5.4-8.2,0-11.3c-5.4-3.1-14.2-3.1-19.6,0
			C482.7,591.5,482.7,596.6,488.1,599.7z"/>
		<path class="st2" d="M536.1,627.4c5.4,3.1,14.2,3.1,19.6,0c5.4-3.1,5.4-8.2,0-11.3c-5.4-3.1-14.2-3.1-19.6,0
			C530.7,619.2,530.7,624.3,536.1,627.4z"/>
		<path class="st2" d="M603.6,643.8c-5.4-3.1-14.2-3.1-19.6,0c-5.4,3.1-5.4,8.2,0,11.3c5.4,3.1,14.2,3.1,19.6,0
			C609,652,609,646.9,603.6,643.8z"/>
		<path class="st2" d="M392.2,599.7c5.4,3.1,14.2,3.1,19.6,0c5.4-3.1,5.4-8.2,0-11.3c-5.4-3.1-14.2-3.1-19.6,0
			C386.8,591.5,386.8,596.6,392.2,599.7z"/>
		<path class="st2" d="M440.1,627.4c5.4,3.1,14.2,3.1,19.6,0c5.4-3.1,5.4-8.2,0-11.3c-5.4-3.1-14.2-3.1-19.6,0
			C434.7,619.2,434.7,624.3,440.1,627.4z"/>
		<path class="st2" d="M488.1,655.1c5.4,3.1,14.2,3.1,19.6,0c5.4-3.1,5.4-8.2,0-11.3c-5.4-3.1-14.2-3.1-19.6,0
			C482.7,646.9,482.7,652,488.1,655.1z"/>
		<path class="st2" d="M555.7,671.5c-5.4-3.1-14.2-3.1-19.6,0c-5.4,3.1-5.4,8.2,0,11.3c5.4,3.1,14.2,3.1,19.6,0
			C561.1,679.7,561.1,674.6,555.7,671.5z"/>
		<path class="st2" d="M363.8,616.1c-5.4-3.1-14.2-3.1-19.6,0c-5.4,3.1-5.4,8.2,0,11.3c5.4,3.1,14.2,3.1,19.6,0
			C369.2,624.3,369.2,619.2,363.8,616.1z"/>
		<path class="st2" d="M411.8,643.8c-5.4-3.1-14.2-3.1-19.6,0c-5.4,3.1-5.4,8.2,0,11.3c5.4,3.1,14.2,3.1,19.6,0
			C417.2,652,417.2,646.9,411.8,643.8z"/>
		<path class="st2" d="M459.7,671.5c-5.4-3.1-14.2-3.1-19.6,0c-5.4,3.1-5.4,8.2,0,11.3c5.4,3.1,14.2,3.1,19.6,0
			C465.2,679.7,465.2,674.6,459.7,671.5z"/>
		<path class="st2" d="M507.7,699.2c-5.4-3.1-14.2-3.1-19.6,0c-5.4,3.1-5.4,8.2,0,11.3c5.4,3.1,14.2,3.1,19.6,0
			C513.1,707.3,513.1,702.3,507.7,699.2z"/>
	</g>
	<g>
		<path class="st0" d="M1069.4,1369.7c-5.4-3.1-14.2-3.1-19.6,0c-5.4,3.1-5.4,8.2,0,11.3c5.4,3.1,14.2,3.1,19.6,0
			C1074.8,1377.8,1074.8,1372.8,1069.4,1369.7z"/>
		<path class="st0" d="M1021.4,1397.3c-5.4-3.1-14.2-3.1-19.6,0s-5.4,8.2,0,11.3c5.4,3.1,14.2,3.1,19.6,0
			C1026.9,1405.5,1026.9,1400.5,1021.4,1397.3z"/>
		<path class="st0" d="M973.5,1425c-5.4-3.1-14.2-3.1-19.6,0c-5.4,3.1-5.4,8.2,0,11.3c5.4,3.1,14.2,3.1,19.6,0
			C978.9,1433.2,978.9,1428.2,973.5,1425z"/>
		<path class="st0" d="M925.5,1452.7c-5.4-3.1-14.2-3.1-19.6,0c-5.4,3.1-5.4,8.2,0,11.3c5.4,3.1,14.2,3.1,19.6,0
			C930.9,1460.9,930.9,1455.9,925.5,1452.7z"/>
		<path class="st0" d="M877.6,1480.4c-5.4-3.1-14.2-3.1-19.6,0c-5.4,3.1-5.4,8.2,0,11.3c5.4,3.1,14.2,3.1,19.6,0
			C883,1488.6,883,1483.5,877.6,1480.4z"/>
	</g>
	<path class="st2" d="M1999.7,702.3l43.1,24.9c6.6,3.8,5.7,10.4-1.8,14.8l-39.4,22.8c-7.6,4.4-19.1,4.9-25.6,1.1l-43.1-24.9
		c-6.6-3.8-5.7-10.4,1.8-14.8l39.4-22.8C1981.6,698.9,1993.1,698.5,1999.7,702.3z"/>
</g>
<g id="Objects">
	<g id="Wires">
		<g>
			<path class="st3" d="M1269.1,1255c-0.4,0-0.9-0.1-1.2-0.3l-421-243.1c-1.2-0.7-1.6-2.2-0.9-3.4c0.7-1.2,2.2-1.6,3.4-0.9
				l421,243.1c1.2,0.7,1.6,2.2,0.9,3.4C1270.8,1254.5,1269.9,1255,1269.1,1255z"/>
		</g>
		<g>
			<path class="st3" d="M1578.1,758.9c-7.6,0-15.3-2-22.1-5.9l-200.2-115.6c-1.2-0.7-1.6-2.2-0.9-3.4c0.7-1.2,2.2-1.6,3.4-0.9
				l200.2,115.6c12.1,7,27.1,7,39.2,0l88-50.8c1.2-0.7,2.7-0.3,3.4,0.9c0.7,1.2,0.3,2.7-0.9,3.4l-88,50.8
				C1593.4,756.9,1585.8,758.9,1578.1,758.9z"/>
		</g>
		<g>
			<path class="st3" d="M849.2,1344.8c-7.6,0-15.3-2-22.1-5.9L643,1232.6c-12.1-7-27.1-7-39.2,0l-25.8,14.9
				c-1.2,0.7-2.7,0.3-3.4-0.9c-0.7-1.2-0.3-2.7,0.9-3.4l25.8-14.9c13.6-7.9,30.6-7.9,44.2,0l184.1,106.3c12.1,7,27.1,7,39.2,0
				l56.6-32.7c1.2-0.7,2.7-0.3,3.4,0.9c0.7,1.2,0.3,2.7-0.9,3.4l-56.6,32.7C864.5,1342.9,856.9,1344.8,849.2,1344.8z"/>
		</g>
		<g>
			<path class="st3" d="M456.6,1130.3c-7.6,0-15.3-2-22.1-5.9l-180.6-104.3c-5.9-3.4-9.4-9.5-9.4-16.3c0-6.8,3.5-12.9,9.4-16.3
				l103.6-59.8c1.2-0.7,2.7-0.3,3.4,0.9c0.7,1.2,0.3,2.7-0.9,3.4l-103.6,59.8c-4.3,2.5-6.9,7-6.9,11.9c0,5,2.6,9.4,6.9,11.9
				L436.9,1120c12.1,7,27.1,7,39.2,0l146-84.3c1.2-0.7,2.7-0.3,3.4,0.9c0.7,1.2,0.3,2.7-0.9,3.4l-146,84.3
				C471.8,1128.3,464.2,1130.3,456.6,1130.3z"/>
		</g>
		<g>
			<path class="st3" d="M1782.6,1212.8c-7.6,0-15.3-2-22.1-5.9l-157.1-90.7c-5.9-3.4-9.4-9.5-9.4-16.3c0-6.8,3.6-12.9,9.5-16.3
				l95.6-54.2c4.4-2.5,7-6.9,7-11.9c0-5-2.6-9.5-6.9-12l-317-183c-1.2-0.7-1.6-2.2-0.9-3.4c0.7-1.2,2.2-1.6,3.4-0.9l317,183
				c5.9,3.4,9.4,9.5,9.4,16.3c0,6.8-3.6,12.9-9.5,16.3L1606,1088c-4.3,2.5-7,6.9-7,11.9c0,5,2.6,9.5,6.9,12l157.1,90.7
				c12.1,7,27.1,7,39.2,0l47.3-27.3c1.2-0.7,2.7-0.3,3.4,0.9c0.7,1.2,0.3,2.7-0.9,3.4l-47.3,27.3
				C1797.9,1210.8,1790.2,1212.8,1782.6,1212.8z"/>
		</g>
		<g>
			<path class="st3" d="M1340.8,1467.9c-7.6,0-15.3-2-22.1-5.9l-180.6-104.3c-5.9-3.4-9.4-9.5-9.4-16.3s3.5-12.9,9.4-16.3
				l142.4-82.2c4.3-2.5,6.9-7,6.9-11.9s-2.6-9.4-6.9-11.9l-208.2-120.2c-5.9-3.4-9.4-9.5-9.4-16.3s3.5-12.9,9.4-16.3l154.9-89.5
				c4.3-2.5,6.9-7,6.9-11.9c0-5-2.6-9.4-6.9-11.9l-138.5-80c-1.2-0.7-1.6-2.2-0.9-3.4c0.7-1.2,2.2-1.6,3.4-0.9l138.5,80
				c5.9,3.4,9.4,9.5,9.4,16.3c0,6.8-3.5,12.9-9.4,16.3l-154.9,89.5c-4.3,2.5-6.9,7-6.9,11.9s2.6,9.4,6.9,11.9l208.2,120.2
				c5.9,3.4,9.4,9.5,9.4,16.3s-3.5,12.9-9.4,16.3l-142.4,82.2c-4.3,2.5-6.9,7-6.9,11.9s2.6,9.4,6.9,11.9l180.6,104.3
				c12.1,7,27.1,7,39.2,0l145.3-83.9c1.2-0.7,2.7-0.3,3.4,0.9c0.7,1.2,0.3,2.7-0.9,3.4l-145.3,83.9
				C1356.1,1465.9,1348.4,1467.9,1340.8,1467.9z"/>
		</g>
	</g>
	<g id="Impulses">
		<linearGradient id="SVGID_2_" gradientUnits="userSpaceOnUse" x1="1152.0518" y1="1034.0365" x2="1170.709" y2="1001.7214">
			<stop  offset="0" style="stop-color:#FFFFFF"/>
			<stop  offset="1" style="stop-color:#FFD39F"/>
		</linearGradient>
		<polygon class="st4" points="1145.3,1030.1 1140.1,1027.2 1177.4,1005.6 1182.6,1008.6 		"/>
		
			<linearGradient id="SVGID_3_" gradientUnits="userSpaceOnUse" x1="1648.3109" y1="862.4984" x2="1666.9684" y2="830.1829" gradientTransform="matrix(-1 0 0 -1 2189.9148 1936.8695)">
			<stop  offset="0" style="stop-color:#FFFFFF"/>
			<stop  offset="1" style="stop-color:#FFD39F"/>
		</linearGradient>
		<polygon class="st5" points="548.3,1078.3 553.5,1081.3 516.2,1102.8 511,1099.8 		"/>
		<linearGradient id="SVGID_4_" gradientUnits="userSpaceOnUse" x1="1621.1617" y1="748.8051" x2="1639.8188" y2="716.4899">
			<stop  offset="0" style="stop-color:#FFFFFF"/>
			<stop  offset="1" style="stop-color:#DAE0F5"/>
		</linearGradient>
		<polygon class="st6" points="1614.4,744.9 1609.2,741.9 1646.6,720.4 1651.7,723.4 		"/>
		
			<linearGradient id="SVGID_5_" gradientUnits="userSpaceOnUse" x1="1554.3953" y1="1168.2865" x2="1573.0524" y2="1135.9714" gradientTransform="matrix(-1 0 0 1 2733.3208 0)">
			<stop  offset="0" style="stop-color:#FFFFFF"/>
			<stop  offset="1" style="stop-color:#FFD39F"/>
		</linearGradient>
		<polygon class="st7" points="1185.7,1164.4 1190.8,1161.4 1153.5,1139.9 1148.3,1142.9 		"/>
		
			<linearGradient id="SVGID_6_" gradientUnits="userSpaceOnUse" x1="2332.1992" y1="1113.0184" x2="2350.8564" y2="1080.7031" gradientTransform="matrix(-1 0 0 1 2733.3208 0)">
			<stop  offset="0" style="stop-color:#FFFFFF"/>
			<stop  offset="1" style="stop-color:#FFD39F"/>
		</linearGradient>
		<polygon class="st8" points="407.9,1109.1 413,1106.1 375.7,1084.6 370.5,1087.6 		"/>
		
			<linearGradient id="SVGID_7_" gradientUnits="userSpaceOnUse" x1="2410.1553" y1="1068.0103" x2="2428.8125" y2="1035.6951" gradientTransform="matrix(-1 0 0 1 2733.3208 0)">
			<stop  offset="0" style="stop-color:#FFFFFF"/>
			<stop  offset="1" style="stop-color:#FFD39F"/>
		</linearGradient>
		<polygon class="st9" points="329.9,1064.1 335.1,1061.1 297.8,1039.6 292.6,1042.6 		"/>
		
			<linearGradient id="SVGID_8_" gradientUnits="userSpaceOnUse" x1="1150.6709" y1="946.0767" x2="1169.3281" y2="913.7615" gradientTransform="matrix(-1 0 0 1 2733.3208 0)">
			<stop  offset="0" style="stop-color:#FFFFFF"/>
			<stop  offset="1" style="stop-color:#FFD39F"/>
		</linearGradient>
		<polygon class="st10" points="1589.4,942.2 1594.6,939.2 1557.3,917.7 1552.1,920.6 		"/>
		
			<linearGradient id="SVGID_9_" gradientUnits="userSpaceOnUse" x1="1074.9214" y1="1155.8441" x2="1093.5786" y2="1123.5289" gradientTransform="matrix(-1 0 0 1 2733.3208 0)">
			<stop  offset="0" style="stop-color:#FFFFFF"/>
			<stop  offset="1" style="stop-color:#FFD39F"/>
		</linearGradient>
		<polygon class="st11" points="1665.1,1152 1670.3,1149 1633,1127.4 1627.8,1130.4 		"/>
		
			<linearGradient id="SVGID_10_" gradientUnits="userSpaceOnUse" x1="995.574" y1="1201.6555" x2="1014.2312" y2="1169.3403" gradientTransform="matrix(-1 0 0 1 2733.3208 0)">
			<stop  offset="0" style="stop-color:#FFFFFF"/>
			<stop  offset="1" style="stop-color:#FFD39F"/>
		</linearGradient>
		<polygon class="st12" points="1744.5,1197.8 1749.7,1194.8 1712.4,1173.2 1707.2,1176.2 		"/>
		
			<linearGradient id="SVGID_11_" gradientUnits="userSpaceOnUse" x1="1509.1592" y1="1415.2675" x2="1527.8163" y2="1382.9524" gradientTransform="matrix(-1 0 0 1 2733.3208 0)">
			<stop  offset="0" style="stop-color:#FFFFFF"/>
			<stop  offset="1" style="stop-color:#FFD39F"/>
		</linearGradient>
		<polygon class="st13" points="1230.9,1411.4 1236.1,1408.4 1198.8,1386.8 1193.6,1389.8 		"/>
		
			<linearGradient id="SVGID_12_" gradientUnits="userSpaceOnUse" x1="1449.9584" y1="1449.447" x2="1468.6156" y2="1417.1318" gradientTransform="matrix(-1 0 0 1 2733.3208 0)">
			<stop  offset="0" style="stop-color:#FFFFFF"/>
			<stop  offset="1" style="stop-color:#FFD39F"/>
		</linearGradient>
		<polygon class="st14" points="1290.1,1445.6 1295.3,1442.6 1258,1421 1252.8,1424 		"/>
		
			<linearGradient id="SVGID_13_" gradientUnits="userSpaceOnUse" x1="1182.1089" y1="877.8743" x2="1200.7661" y2="845.559" gradientTransform="matrix(1 0 0 -1 25.968 2084.3767)">
			<stop  offset="0" style="stop-color:#FFFFFF"/>
			<stop  offset="1" style="stop-color:#DAE0F5"/>
		</linearGradient>
		<polygon class="st15" points="1201.3,1210.4 1196.2,1213.4 1233.5,1234.9 1238.7,1231.9 		"/>
		
			<linearGradient id="SVGID_14_" gradientUnits="userSpaceOnUse" x1="1144.7948" y1="899.4177" x2="1163.4519" y2="867.1026" gradientTransform="matrix(1 0 0 -1 25.968 2084.3767)">
			<stop  offset="0" style="stop-color:#FFFFFF"/>
			<stop  offset="1" style="stop-color:#DAE0F5"/>
		</linearGradient>
		<polygon class="st16" points="1164,1188.8 1158.8,1191.8 1196.2,1213.4 1201.3,1210.4 		"/>
		
			<linearGradient id="SVGID_15_" gradientUnits="userSpaceOnUse" x1="1441.1187" y1="1396.3657" x2="1459.7759" y2="1364.0505" gradientTransform="matrix(1 0 0 -1 25.968 2084.3767)">
			<stop  offset="0" style="stop-color:#FFFFFF"/>
			<stop  offset="1" style="stop-color:#DAE0F5"/>
		</linearGradient>
		<polygon class="st17" points="1460.3,691.9 1455.2,694.9 1492.5,716.4 1497.7,713.4 		"/>
		
			<linearGradient id="SVGID_16_" gradientUnits="userSpaceOnUse" x1="1612.5991" y1="1297.0291" x2="1631.2563" y2="1264.7139" gradientTransform="matrix(-1 0 0 1 2327.8354 -14.8029)">
			<stop  offset="0" style="stop-color:#FFFFFF"/>
			<stop  offset="1" style="stop-color:#DAE0F5"/>
		</linearGradient>
		<polygon class="st18" points="722,1278.3 727.2,1275.3 689.8,1253.8 684.7,1256.8 		"/>
		
			<linearGradient id="SVGID_17_" gradientUnits="userSpaceOnUse" x1="1541.4006" y1="1338.1356" x2="1560.0579" y2="1305.8203" gradientTransform="matrix(-1 0 0 1 2327.8354 -14.8029)">
			<stop  offset="0" style="stop-color:#FFFFFF"/>
			<stop  offset="1" style="stop-color:#DAE0F5"/>
		</linearGradient>
		<polygon class="st19" points="793.2,1319.4 798.4,1316.5 761,1294.9 755.9,1297.9 		"/>
	</g>
	<g id="Back_server">
		<linearGradient id="SVGID_18_" gradientUnits="userSpaceOnUse" x1="639.2277" y1="915.2123" x2="396.9842" y2="915.2123">
			<stop  offset="0" style="stop-color:#FFFFFF"/>
			<stop  offset="0.3285" style="stop-color:#F4F5FC"/>
			<stop  offset="0.9061" style="stop-color:#D6DCF4"/>
			<stop  offset="1" style="stop-color:#D1D7F3"/>
		</linearGradient>
		<path class="st20" d="M631.7,904.7l-91.6-52.9c-5-2.9-11.6-4.4-18.2-4.4l0,0l0,0H397V983h124.9l0,0l0,0c6.6,0,13.2-1.5,18.2-4.4
			l91.6-52.9c5-2.9,7.5-6.7,7.5-10.5C639.2,911.4,636.7,907.6,631.7,904.7z"/>
		<g>
			<path class="st21" d="M377.6,910.6l-97.5-56.3c-5.4-3.1-8-7.1-8-11.2c0-4.1,2.7-8.1,8-11.2l97.5-56.3c5.4-3.1,12.4-4.6,19.4-4.6
				c7,0,14,1.5,19.4,4.6l97.5,56.3c5.4,3.1,8,7.1,8,11.2c0,4-2.7,8.1-8,11.2l-97.5,56.3c-5.4,3.1-12.4,4.6-19.4,4.6
				C390,915.2,382.9,913.7,377.6,910.6z"/>
			<linearGradient id="SVGID_19_" gradientUnits="userSpaceOnUse" x1="272.0555" y1="913.0424" x2="521.8902" y2="913.0424">
				<stop  offset="0.396" style="stop-color:#CED3F8"/>
				<stop  offset="0.5516" style="stop-color:#BEC3E9"/>
				<stop  offset="0.5736" style="stop-color:#BBC0E6"/>
			</linearGradient>
			<path class="st22" d="M513.9,854.3l-97.5,56.3c-5.4,3.1-12.4,4.6-19.4,4.6c-7,0-14-1.5-19.4-4.6l-97.5-56.3
				c-5.4-3.1-8-7.1-8-11.2v67.7c0,4.1,2.7,8.1,8,11.2l97.5,56.3c5.4,3.1,12.4,4.6,19.4,4.6c7,0,14-1.6,19.4-4.6l97.5-56.3
				c5.4-3.1,8-7.1,8-11.2v-67.7C521.9,847.2,519.2,851.2,513.9,854.3z"/>
		</g>
		<g>
			<path class="st21" d="M377.6,820.3L280.1,764c-5.4-3.1-8-7.1-8-11.2c0-4.1,2.7-8.1,8-11.2l97.5-56.3c5.4-3.1,12.4-4.6,19.4-4.6
				c7,0,14,1.5,19.4,4.6l97.5,56.3c5.4,3.1,8,7.1,8,11.2c0,4-2.7,8.1-8,11.2l-97.5,56.3c-5.4,3.1-12.4,4.6-19.4,4.6
				C390,824.9,382.9,823.4,377.6,820.3z"/>
			<linearGradient id="SVGID_20_" gradientUnits="userSpaceOnUse" x1="272.0555" y1="822.7228" x2="521.8902" y2="822.7228">
				<stop  offset="0.396" style="stop-color:#CED3F8"/>
				<stop  offset="0.5516" style="stop-color:#BEC3E9"/>
				<stop  offset="0.5736" style="stop-color:#BBC0E6"/>
			</linearGradient>
			<path class="st23" d="M513.9,764l-97.5,56.3c-5.4,3.1-12.4,4.6-19.4,4.6c-7,0-14-1.5-19.4-4.6L280.1,764c-5.4-3.1-8-7.1-8-11.2
				v67.7c0,4.1,2.7,8.1,8,11.2l97.5,56.3c5.4,3.1,12.4,4.6,19.4,4.6c7,0,14-1.6,19.4-4.6l97.5-56.3c5.4-3.1,8-7.1,8-11.2v-67.7
				C521.9,756.9,519.2,760.9,513.9,764z"/>
		</g>
		<g>
			<polygon class="st24" points="461.7,825 506.2,799.3 506.2,808.9 461.7,834.6 			"/>
			<polygon class="st24" points="447.7,833.1 453.8,829.6 453.8,839.2 447.7,842.7 			"/>
			<polygon class="st24" points="435.5,840.1 441.6,836.6 441.6,846.2 435.5,849.7 			"/>
			<polygon class="st24" points="423.4,847.1 429.5,843.6 429.5,853.2 423.4,856.7 			"/>
		</g>
		<g>
			<polygon class="st25" points="332.2,825.9 287.7,800.2 287.7,809.8 332.2,835.5 			"/>
			<path class="st26" d="M337.8,833.9c0-2.6,1.8-3.7,4.1-2.4c2.3,1.3,4.1,4.5,4.1,7.1c0,2.6-1.8,3.7-4.1,2.4
				C339.6,839.7,337.8,836.5,337.8,833.9z"/>
			<path class="st24" d="M352.2,842.2c0-2.6,1.8-3.7,4.1-2.4c2.3,1.3,4.1,4.5,4.1,7.1c0,2.6-1.8,3.7-4.1,2.4
				C354,848,352.2,844.9,352.2,842.2z"/>
			<path class="st25" d="M366.5,850.5c0-2.6,1.8-3.7,4.1-2.4c2.3,1.3,4.1,4.5,4.1,7.1c0,2.6-1.8,3.7-4.1,2.4
				C368.4,856.3,366.5,853.2,366.5,850.5z"/>
		</g>
		<g>
			<polygon class="st24" points="461.7,914.8 506.2,889.1 506.2,898.7 461.7,924.4 			"/>
			<polygon class="st24" points="447.7,922.9 453.8,919.3 453.8,929 447.7,932.5 			"/>
			<polygon class="st24" points="435.5,929.9 441.6,926.4 441.6,936 435.5,939.5 			"/>
			<polygon class="st24" points="423.4,936.9 429.5,933.4 429.5,943 423.4,946.5 			"/>
		</g>
		<g>
			<polygon class="st25" points="345.3,923.2 300.8,897.6 300.8,907.2 345.3,932.9 			"/>
			<path class="st26" d="M288.5,895.2c0-2.6,1.8-3.7,4.1-2.4c2.3,1.3,4.1,4.5,4.1,7.1c0,2.6-1.8,3.7-4.1,2.4
				C290.3,901,288.5,897.8,288.5,895.2z"/>
			<path class="st24" d="M352.2,932c0-2.6,1.8-3.7,4.1-2.4c2.3,1.3,4.1,4.5,4.1,7.1c0,2.6-1.8,3.7-4.1,2.4
				C354,937.8,352.2,934.6,352.2,932z"/>
			<path class="st25" d="M366.5,940.3c0-2.6,1.8-3.7,4.1-2.4c2.3,1.3,4.1,4.5,4.1,7.1c0,2.6-1.8,3.7-4.1,2.4
				C368.4,946.1,366.5,942.9,366.5,940.3z"/>
		</g>
	</g>
	<g id="Wrning_symbol_in_the_air">
		<g>
			<path class="st27" d="M589.5,487l71.2-183.6c3.7-9.5,9.3-14,13.7-11.6l0,0l-15.2-8.8l0,0c-4.3-2.4-10,2.1-13.7,11.6l-71.2,183.6
				c-2.6,6.7-2.4,11.3,0,12.8l0,0l0.2,0.1c0.1,0.1,0.2,0.1,0.3,0.2l14.7,8.5l0,0C587.1,498.3,586.9,493.7,589.5,487z"/>
			<path class="st28" d="M660.7,303.4c4.4-11.4,11.7-15.6,16.1-9.3l71.2,101.3c4.4,6.3,0.8,15.7-8.1,20.8l-142.4,82.2
				c-8.9,5.1-12.5,0-8.1-11.5L660.7,303.4z"/>
			<polygon class="st0" points="674,416.7 663.6,422.7 663.6,434.7 674,428.7 			"/>
			<polygon class="st0" points="676,338.9 661.6,347.2 663.6,410.6 674,404.6 			"/>
		</g>
	</g>
	<g id="_x34_">
		<polygon class="st21" points="1575.9,441.8 1413.8,348.2 1459,322.1 1621.1,415.7 		"/>
		<polygon class="st21" points="1326.5,398.6 1326.5,566 1339.8,573.7 1488.6,492.1 		"/>
		<polygon class="st29" points="1488.6,492.1 1339.8,573.7 1488.6,659.6 		"/>
		<linearGradient id="SVGID_21_" gradientUnits="userSpaceOnUse" x1="817.1192" y1="966.7123" x2="1127.9155" y2="966.7123">
			<stop  offset="4.398900e-04" style="stop-color:#D1D7F3"/>
			<stop  offset="1" style="stop-color:#FFFFFF"/>
		</linearGradient>
		<rect x="817.1" y="886.1" class="st30" width="310.8" height="161.1"/>
		<linearGradient id="SVGID_22_" gradientUnits="userSpaceOnUse" x1="1488.6052" y1="579.0295" x2="1799.4015" y2="579.0295">
			<stop  offset="4.398900e-04" style="stop-color:#D1D7F3"/>
			<stop  offset="1" style="stop-color:#FFFFFF"/>
		</linearGradient>
		<rect x="1488.6" y="498.5" class="st31" width="310.8" height="161.1"/>
		<polygon class="st29" points="1306.2,687.1 1144.1,593.5 1144.1,498.5 1306.2,592.1 		"/>
		<polygon class="st29" points="1488.6,492.1 1326.5,398.6 1326.5,231.1 1488.6,324.7 		"/>
		<polygon class="st32" points="1306.2,592.1 1144.1,498.5 1326.5,142.9 1488.6,236.4 		"/>
		<polygon class="st21" points="1488.6,236.4 1326.5,142.9 1413.8,92.5 1575.9,186.1 		"/>
		<path class="st33" d="M1575.9,441.8V186.1l-87.3,50.4l-182.4,355.6v95.1l182.4-105.3v77.8l87.3-50.4v-77.8l45.2-26.1v-89.7
			L1575.9,441.8z M1488.6,492.1l-74.8,43.2l74.8-144.9V492.1z"/>
	</g>
	<g id="_x30_">
		<linearGradient id="SVGID_23_" gradientUnits="userSpaceOnUse" x1="963.6749" y1="831.8199" x2="1443.619" y2="831.8199">
			<stop  offset="4.398900e-04" style="stop-color:#D1D7F3"/>
			<stop  offset="1" style="stop-color:#FFFFFF"/>
		</linearGradient>
		<path class="st34" d="M1443.6,717.5h-23.1c-155.9,0-345.5,36.5-423.4,81.5c-40.9,23.6-42.9,44.9-13.1,59.8
			c25.1,12.5,87.6,46.7,114.4,58.9c29.5,13.5,101.3,28.5,187.1,28.5h158.1V717.5z"/>
		<path class="st33" d="M1127.9,444.7v102.6c28.9-16.7,52.3-3.2,52.3,30.2v104.7c0,33.3-23.4,73.9-52.3,90.5
			c-28.9,16.7-52.3,3.2-52.3-30.2V638.7L986.8,690v103.8c0,90,63.2,126.5,141.1,81.5c77.9-45,141.1-154.5,141.1-244.5V526.2
			C1269.1,436.2,1205.9,399.7,1127.9,444.7z"/>
		<linearGradient id="SVGID_24_" gradientUnits="userSpaceOnUse" x1="1019.1341" y1="734.8634" x2="1138.3728" y2="528.3359">
			<stop  offset="0.1234" style="stop-color:#F6F6FB"/>
			<stop  offset="0.6173" style="stop-color:#CED3F8"/>
		</linearGradient>
		<path class="st35" d="M1127.9,547.3l-109.1-63l-0.7,4.7v100.5c0,4.9-0.6,10-1.5,15.2l59.1,34.1v103.8c0,33.3,23.4,46.8,52.3,30.2
			c28.9-16.7,52.3-57.2,52.3-90.5V577.5C1180.2,544.1,1156.8,530.6,1127.9,547.3z"/>
		<path class="st33" d="M1269.1,526.2c0-90-63.2-126.5-141.1-81.5c-77.9,45-141.1,154.5-141.1,244.5l0,0l0,104.7
			c0,90,63.2,126.5,141.1,81.5c77.9-45,141.1-154.5,141.1-244.5V526.2C1269.1,526.2,1269.1,526.2,1269.1,526.2L1269.1,526.2z
			 M1180.2,682.1c0,33.3-23.4,73.9-52.3,90.5c-28.9,16.7-52.3,3.2-52.3-30.2l0-104.6c0-33.3,23.4-73.9,52.3-90.5
			c28.9-16.7,52.3-3.2,52.3,30.2V682.1z"/>
		<linearGradient id="SVGID_25_" gradientUnits="userSpaceOnUse" x1="874.4962" y1="796.4758" x2="1119.3833" y2="372.3188">
			<stop  offset="0.2194" style="stop-color:#D1D7F3"/>
			<stop  offset="0.2951" style="stop-color:#DADEF5"/>
			<stop  offset="0.5163" style="stop-color:#EEF0F9"/>
			<stop  offset="0.663" style="stop-color:#F6F6FB"/>
		</linearGradient>
		<path class="st36" d="M1028.1,885.1c-1.3-0.7-2.3-1.4-3.3-2.1c-23.5-15.5-38-46.3-38-89.2l0-104.7h0c0-90,63.2-199.5,141.1-244.5
			c37.3-21.5,71.2-24.4,96.4-11.6c0,0,0,0,0,0l0,0l-156.5-90.4c-1.5-0.9-3-1.8-4.6-2.6l-1-0.6l0,0c-25.2-12.7-59.1-9.9-96.4,11.6
			c-77.9,45-141.1,154.5-141.1,244.5l0,0v104.7c0,45,15.8,76.6,41.4,91.4L1028.1,885.1C1028.1,885.2,1028.1,885.2,1028.1,885.1z"/>
	</g>
	<g id="_x34__1_">
		<polygon class="st21" points="904.4,829.5 742.3,735.9 787.5,709.8 949.6,803.3 		"/>
		<polygon class="st21" points="655,786.2 655,953.7 668.3,961.4 817.1,879.8 		"/>
		<polygon class="st29" points="817.1,879.8 668.3,961.4 817.1,1047.3 		"/>
		<polygon class="st29" points="634.7,1074.8 472.6,981.2 472.6,886.1 634.7,979.7 		"/>
		<polygon class="st29" points="817.1,879.8 655,786.2 655,618.8 817.1,712.4 		"/>
		<polygon class="st32" points="634.7,979.7 472.6,886.1 655,530.5 817.1,624.1 		"/>
		<polygon class="st21" points="817.1,624.1 655,530.5 742.3,480.2 904.4,573.7 		"/>
		<path class="st33" d="M904.4,829.5V573.7l-87.3,50.4L634.7,979.7v95.1l182.4-105.3v77.8l87.3-50.4v-77.8l45.2-26.1v-89.7
			L904.4,829.5z M817.1,879.8L742.3,923l74.8-144.9V879.8z"/>
	</g>
	<g id="Server">
		<linearGradient id="SVGID_26_" gradientUnits="userSpaceOnUse" x1="1292.1107" y1="1282.1941" x2="984.041" y2="1282.1941">
			<stop  offset="0.2199" style="stop-color:#FFFFFF"/>
			<stop  offset="0.4762" style="stop-color:#F4F5FC"/>
			<stop  offset="0.9268" style="stop-color:#D6DCF4"/>
			<stop  offset="1" style="stop-color:#D1D7F3"/>
		</linearGradient>
		<path class="st37" d="M1283.4,1270l-105.7-61c-5.8-3.4-13.4-5-21-5l0,0l0,0H984v156.4h172.6l0,0l0,0c7.6,0,15.2-1.7,21-5l105.7-61
			c5.8-3.4,8.7-7.8,8.7-12.1C1292.1,1277.8,1289.2,1273.4,1283.4,1270z"/>
		<g>
			<path class="st21" d="M961.6,1191.9l-112.5-65c-6.2-3.6-9.3-8.3-9.3-12.9c0-4.7,3.1-9.4,9.3-12.9l112.5-65
				c6.2-3.6,14.3-5.4,22.4-5.4c8.1,0,16.2,1.8,22.4,5.4l112.5,65c6.2,3.6,9.3,8.2,9.3,12.9c0,4.7-3.1,9.3-9.3,12.9l-112.5,65
				c-6.2,3.6-14.3,5.3-22.4,5.3C975.9,1197.2,967.8,1195.4,961.6,1191.9z"/>
			<linearGradient id="SVGID_27_" gradientUnits="userSpaceOnUse" x1="839.8215" y1="1237.1808" x2="1128.2341" y2="1237.1808">
				<stop  offset="0.396" style="stop-color:#CED3F8"/>
				<stop  offset="0.5516" style="stop-color:#BEC3E9"/>
				<stop  offset="0.5736" style="stop-color:#BBC0E6"/>
			</linearGradient>
			<path class="st38" d="M1119,1126.9l-112.5,65c-6.2,3.6-14.3,5.3-22.4,5.3c-8.1,0-16.2-1.8-22.4-5.3l-112.5-65
				c-6.2-3.6-9.3-8.3-9.3-12.9v163.2c0,4.7,3.1,9.4,9.3,12.9l112.5,65c6.2,3.6,14.3,5.4,22.4,5.4c8.1,0,16.2-1.8,22.4-5.4l112.5-65
				c6.2-3.6,9.3-8.2,9.3-12.9V1114C1128.2,1118.6,1125.1,1123.3,1119,1126.9z"/>
			<path class="st39" d="M1119,1126.9l-112.5,65c-6.2,3.6-14.3,5.3-22.4,5.3c-8.1,0-16.2-1.8-22.4-5.3l-112.5-65
				c-6.2-3.6-9.3-8.3-9.3-12.9v6.6c0,4.7,3.1,9.4,9.3,12.9l112.5,65c6.2,3.6,14.3,5.3,22.4,5.3c8.1,0,16.2-1.8,22.4-5.3l112.5-65
				c6.2-3.6,9.3-8.3,9.3-12.9v-6.6C1128.2,1118.6,1125.1,1123.3,1119,1126.9z"/>
			<path class="st39" d="M1119,1179.7l-112.5,65c-6.2,3.6-14.3,5.3-22.4,5.3c-8.1,0-16.2-1.8-22.4-5.3l-112.5-65
				c-6.2-3.6-9.3-8.3-9.3-12.9v6.6c0,4.7,3.1,9.4,9.3,12.9l112.5,65c6.2,3.6,14.3,5.3,22.4,5.3c8.1,0,16.2-1.8,22.4-5.3l112.5-65
				c6.2-3.6,9.3-8.3,9.3-12.9v-6.6C1128.2,1171.5,1125.1,1176.1,1119,1179.7z"/>
			<path class="st39" d="M1119,1232.5l-112.5,65c-6.2,3.6-14.3,5.3-22.4,5.3c-8.1,0-16.2-1.8-22.4-5.3l-112.5-65
				c-6.2-3.6-9.3-8.3-9.3-12.9v6.6c0,4.7,3.1,9.4,9.3,12.9l112.5,65c6.2,3.6,14.3,5.3,22.4,5.3c8.1,0,16.2-1.8,22.4-5.3l112.5-65
				c6.2-3.6,9.3-8.3,9.3-12.9v-6.6C1128.2,1224.3,1125.1,1228.9,1119,1232.5z"/>
			<path class="st39" d="M1119,1283.5l-112.5,65c-6.2,3.6-14.3,5.3-22.4,5.3c-8.1,0-16.2-1.8-22.4-5.3l-112.5-65
				c-6.2-3.6-9.3-8.3-9.3-12.9v6.6c0,4.7,3.1,9.4,9.3,12.9l112.5,65c6.2,3.6,14.3,5.3,22.4,5.3c8.1,0,16.2-1.8,22.4-5.3l112.5-65
				c6.2-3.6,9.3-8.3,9.3-12.9v-6.6C1128.2,1275.2,1125.1,1279.9,1119,1283.5z"/>
		</g>
		<g>
			<polygon class="st25" points="908.4,1186 856.4,1156 856.4,1167.2 908.4,1197.2 			"/>
			<g>
				<polygon class="st24" points="1059.7,1186 1111.6,1156 1111.6,1167.2 1059.7,1197.2 				"/>
				<polygon class="st24" points="1043.3,1195.4 1050.4,1191.3 1050.4,1202.6 1043.3,1206.7 				"/>
				<polygon class="st24" points="1029.1,1203.6 1036.2,1199.5 1036.2,1210.8 1029.1,1214.9 				"/>
				<polygon class="st24" points="1014.9,1211.8 1022,1207.7 1022,1219 1014.9,1223.1 				"/>
			</g>
			<g>
				<polygon class="st24" points="1059.7,1237.8 1111.6,1207.8 1111.6,1219 1059.7,1249 				"/>
				<polygon class="st24" points="1043.3,1247.3 1050.4,1243.2 1050.4,1254.4 1043.3,1258.5 				"/>
				<polygon class="st24" points="1029.1,1255.5 1036.2,1251.4 1036.2,1262.6 1029.1,1266.7 				"/>
				<polygon class="st24" points="1014.9,1263.7 1022,1259.6 1022,1270.8 1014.9,1274.9 				"/>
			</g>
			<g>
				<polygon class="st24" points="1059.7,1289.6 1111.6,1259.6 1111.6,1270.8 1059.7,1300.9 				"/>
				<polygon class="st24" points="1043.3,1299.1 1050.4,1295 1050.4,1306.2 1043.3,1310.3 				"/>
				<polygon class="st24" points="1029.1,1307.3 1036.2,1303.2 1036.2,1314.4 1029.1,1318.5 				"/>
				<polygon class="st24" points="1014.9,1315.5 1022,1311.4 1022,1322.6 1014.9,1326.7 				"/>
			</g>
			<path class="st28" d="M914.9,1195.3c0-3.1,2.1-4.3,4.8-2.8c2.6,1.5,4.8,5.2,4.8,8.3c0,3.1-2.1,4.3-4.8,2.8
				C917,1202.1,914.9,1198.4,914.9,1195.3z"/>
			<path class="st24" d="M931.7,1205c0-3.1,2.1-4.3,4.8-2.8c2.6,1.5,4.8,5.2,4.8,8.3c0,3.1-2.1,4.3-4.8,2.8
				C933.8,1211.8,931.7,1208.1,931.7,1205z"/>
			<path class="st25" d="M948.5,1214.7c0-3.1,2.1-4.3,4.8-2.8c2.6,1.5,4.8,5.2,4.8,8.3c0,3.1-2.1,4.3-4.8,2.8
				C950.6,1221.5,948.5,1217.8,948.5,1214.7z"/>
		</g>
		<g>
			<polygon class="st25" points="908.4,1238.9 856.4,1208.9 856.4,1220.1 908.4,1250.1 			"/>
			<path class="st28" d="M914.9,1248.2c0-3.1,2.1-4.3,4.8-2.8c2.6,1.5,4.8,5.2,4.8,8.3c0,3.1-2.1,4.3-4.8,2.8
				C917,1255,914.9,1251.3,914.9,1248.2z"/>
			<path class="st24" d="M931.7,1257.9c0-3.1,2.1-4.3,4.8-2.8c2.6,1.5,4.8,5.2,4.8,8.3c0,3.1-2.1,4.3-4.8,2.8
				C933.8,1264.7,931.7,1261,931.7,1257.9z"/>
			<path class="st25" d="M948.5,1267.7c0-3.1,2.1-4.3,4.8-2.8c2.6,1.5,4.8,5.2,4.8,8.3c0,3.1-2.1,4.3-4.8,2.8
				C950.6,1274.4,948.5,1270.7,948.5,1267.7z"/>
		</g>
		<g>
			<polygon class="st24" points="923.6,1299.5 871.6,1269.5 871.6,1280.7 923.6,1310.7 			"/>
			<path class="st28" d="M856.5,1266.3c0-3.1,2.1-4.3,4.8-2.8c2.6,1.5,4.8,5.2,4.8,8.3c0,3.1-2.1,4.3-4.8,2.8
				C858.6,1273,856.5,1269.3,856.5,1266.3z"/>
			<path class="st24" d="M931.7,1309.8c0-3.1,2.1-4.3,4.8-2.8c2.6,1.5,4.8,5.2,4.8,8.3c0,3.1-2.1,4.3-4.8,2.8
				C933.8,1316.5,931.7,1312.8,931.7,1309.8z"/>
			<path class="st25" d="M948.5,1319.5c0-3.1,2.1-4.3,4.8-2.8c2.6,1.5,4.8,5.2,4.8,8.3c0,3.1-2.1,4.3-4.8,2.8
				C950.6,1326.2,948.5,1322.5,948.5,1319.5z"/>
		</g>
	</g>
	<g id="Flat_blocks">
		<linearGradient id="SVGID_28_" gradientUnits="userSpaceOnUse" x1="1905.9689" y1="674.7689" x2="1734.9344" y2="674.7689">
			<stop  offset="0" style="stop-color:#FFFFFF"/>
			<stop  offset="0.3285" style="stop-color:#F4F5FC"/>
			<stop  offset="0.9061" style="stop-color:#D6DCF4"/>
			<stop  offset="1" style="stop-color:#D1D7F3"/>
		</linearGradient>
		<path class="st40" d="M1899.4,665.6l-80.1-46.2c-4.4-2.5-10.2-3.8-15.9-3.8l0,0l0,0h-68.4V734h68.4l0,0l0,0
			c5.8,0,11.5-1.3,15.9-3.8l80.1-46.2c4.4-2.5,6.6-5.9,6.6-9.2C1906,671.4,1903.8,668.1,1899.4,665.6z"/>
		<g>
			<path class="st0" d="M1718,697l-85.2-49.2c-4.7-2.7-7-6.3-7-9.8c0-3.5,2.3-7.1,7-9.8L1718,579c4.7-2.7,10.8-4.1,17-4.1
				c6.1,0,12.3,1.3,17,4.1l85.2,49.2c4.7,2.7,7,6.2,7,9.8c0,3.5-2.3,7.1-7,9.8l-85.2,49.2c-4.7,2.7-10.8,4.1-17,4.1
				C1728.8,701.1,1722.7,699.7,1718,697z"/>
			<linearGradient id="SVGID_29_" gradientUnits="userSpaceOnUse" x1="1625.7012" y1="686.0093" x2="1844.1477" y2="686.0093">
				<stop  offset="0.396" style="stop-color:#CED3F8"/>
				<stop  offset="0.5516" style="stop-color:#BEC3E9"/>
				<stop  offset="0.5736" style="stop-color:#BBC0E6"/>
			</linearGradient>
			<path class="st41" d="M1837.1,647.8l-85.2,49.2c-4.7,2.7-10.8,4.1-17,4.1c-6.1,0-12.3-1.4-17-4.1l-85.2-49.2
				c-4.7-2.7-7-6.3-7-9.8v32.9c0,3.6,2.3,7.1,7,9.8l85.2,49.2c4.7,2.7,10.8,4.1,17,4.1c6.1,0,12.3-1.4,17-4.1l85.2-49.2
				c4.7-2.7,7-6.2,7-9.8V638C1844.1,641.6,1841.8,645.1,1837.1,647.8z"/>
		</g>
		<linearGradient id="SVGID_30_" gradientUnits="userSpaceOnUse" x1="657.8542" y1="1277.8966" x2="527.1757" y2="1277.8966">
			<stop  offset="0" style="stop-color:#FFFFFF"/>
			<stop  offset="0.3285" style="stop-color:#F4F5FC"/>
			<stop  offset="0.9061" style="stop-color:#D6DCF4"/>
			<stop  offset="1" style="stop-color:#D1D7F3"/>
		</linearGradient>
		<path class="st42" d="M653.5,1271.9l-52.5-30.3c-2.9-1.7-6.7-2.5-10.4-2.5H572l0,0h-44.8v77.6h63.5l0,0l0,0
			c3.8,0,7.5-0.8,10.4-2.5l52.5-30.3c2.9-1.7,4.3-3.8,4.3-6C657.9,1275.7,656.4,1273.5,653.5,1271.9z"/>
		<g>
			<path class="st21" d="M516.1,1281.5l-55.8-32.2c-3.1-1.8-4.6-4.1-4.6-6.4c0-2.3,1.5-4.6,4.6-6.4l55.8-32.2
				c3.1-1.8,7.1-2.7,11.1-2.7c4,0,8,0.9,11.1,2.7l55.8,32.2c3.1,1.8,4.6,4.1,4.6,6.4c0,2.3-1.5,4.6-4.6,6.4l-55.8,32.2
				c-3.1,1.8-7.1,2.7-11.1,2.7C523.2,1284.1,519.1,1283.2,516.1,1281.5z"/>
			<linearGradient id="SVGID_31_" gradientUnits="userSpaceOnUse" x1="455.6125" y1="1279.7585" x2="598.7263" y2="1279.7585">
				<stop  offset="0.396" style="stop-color:#CED3F8"/>
				<stop  offset="0.5516" style="stop-color:#BEC3E9"/>
				<stop  offset="0.5736" style="stop-color:#BBC0E6"/>
			</linearGradient>
			<path class="st43" d="M594.1,1249.2l-55.8,32.2c-3.1,1.8-7.1,2.7-11.1,2.7c-4,0-8-0.9-11.1-2.7l-55.8-32.2
				c-3.1-1.8-4.6-4.1-4.6-6.4v32.6c0,2.3,1.5,4.6,4.6,6.4l55.8,32.2c3.1,1.8,7.1,2.7,11.1,2.7c4,0,8-0.9,11.1-2.7l55.8-32.2
				c3.1-1.8,4.6-4.1,4.6-6.4v-32.6C598.7,1245.1,597.2,1247.5,594.1,1249.2z"/>
		</g>
		<path class="st44" d="M1686.7,618.3c0.2-2.2,1.6-4.1,4.3-5.6c2.6-1.5,5.8-2.3,9.7-2.5c3.8-0.1,7.8,1,12,3.4c1.3,0.8,3,2.1,5,4
			c2,1.9,5.2,5,9.5,9.5c2.6,2.7,4.9,4.8,7,6.4c2,1.6,6.3,4.7,12.8,9.4l-3.4,2c-10.3-4.6-16.7-7.5-19.2-8.5c-2.5-1-6.3-2.3-11.4-3.9
			c-6.4-2-10.7-3.4-12.8-4.1c-3.2-1.1-5.6-2.1-7-2.9C1688.6,622.8,1686.5,620.5,1686.7,618.3z M1750.2,655c0-2.2,1.4-4.2,4.2-5.8
			c2.8-1.6,6.1-2.4,10-2.4c3.9,0,7.2,0.8,10,2.4c2.8,1.6,4.2,3.5,4.2,5.8c0,2.2-1.4,4.2-4.2,5.8c-2.8,1.6-6.1,2.4-10,2.4
			c-3.9,0-7.2-0.8-10-2.4C1751.6,659.2,1750.2,657.2,1750.2,655z"/>
		<polygon class="st26" points="551,1245.9 551,1239.1 532.8,1239.1 532.8,1228.6 521,1228.6 521,1239.1 502.8,1239.1 502.8,1245.9 
			521,1245.9 521,1256.4 532.8,1256.4 532.8,1245.9 		"/>
	</g>
	<g id="Warning_symbol">
		<linearGradient id="SVGID_32_" gradientUnits="userSpaceOnUse" x1="1340.806" y1="847.7961" x2="1583.603" y2="847.7961">
			<stop  offset="0" style="stop-color:#D1D7F3"/>
			<stop  offset="9.387273e-02" style="stop-color:#D6DCF4"/>
			<stop  offset="0.6715" style="stop-color:#F4F5FC"/>
			<stop  offset="1" style="stop-color:#FFFFFF"/>
		</linearGradient>
		<path class="st45" d="M1571.4,811l-212.2-32.8c-13.2-2-21.1,2.5-17.6,10.2l46.2,99.5h-4.1v30h26.9v0c3.8,0.1,7.9-1,11.9-3.3
			l155.3-89.7C1587.6,819.3,1584.7,813.1,1571.4,811z"/>
		<g>
			
				<linearGradient id="SVGID_33_" gradientUnits="userSpaceOnUse" x1="1840.8961" y1="844.2775" x2="2083.6646" y2="844.2775" gradientTransform="matrix(-1 0 0 1 3396.48 0)">
				<stop  offset="0.6292" style="stop-color:#C6290A"/>
				<stop  offset="0.6523" style="stop-color:#CD2F0C"/>
				<stop  offset="0.7497" style="stop-color:#E64613"/>
				<stop  offset="0.809" style="stop-color:#EF4E16"/>
			</linearGradient>
			<path class="st46" d="M1312.8,770.7c0,1.1,0.2,2.3,0.8,3.6l56.9,122.5c3.5,7.6,14.4,9.3,24.1,3.7l155.3-89.7
				c3.8-2.2,5.6-4.5,5.7-6.6l0,0v14.2l0,0c-0.1,2.1-2,4.3-5.7,6.5l-155.3,89.7c-9.7,5.6-20.5,3.9-24.1-3.7l-56.9-122.5
				c-0.6-1.3-0.8-2.4-0.8-3.5l0,0L1312.8,770.7L1312.8,770.7z"/>
			<path class="st26" d="M1313.6,774.3c-3.5-7.6,4.4-12.2,17.6-10.2l212.2,32.8c13.2,2,16.1,8.3,6.4,13.9l-155.3,89.7
				c-9.7,5.6-20.5,3.9-24.1-3.7L1313.6,774.3z"/>
		</g>
		<path class="st0" d="M1357,797.2c0.2-2.2,1.6-4.1,4.3-5.7c2.7-1.5,5.9-2.4,9.8-2.5c3.9-0.1,7.9,1,12.2,3.5c1.3,0.8,3,2.1,5,4
			c2,1.9,5.3,5.1,9.7,9.6c2.7,2.7,5,4.9,7.1,6.5c2.1,1.6,6.4,4.8,13,9.6l-3.5,2c-10.4-4.7-17-7.6-19.5-8.6c-2.6-1-6.4-2.4-11.6-4
			c-6.5-2.1-10.9-3.4-13-4.2c-3.3-1.1-5.7-2.1-7.2-3C1359,801.9,1356.9,799.5,1357,797.2z M1421.6,834.6c0-2.3,1.4-4.2,4.2-5.9
			c2.8-1.6,6.2-2.4,10.1-2.4c4,0,7.3,0.8,10.2,2.4c2.8,1.6,4.2,3.6,4.2,5.9c0,2.3-1.4,4.2-4.2,5.9c-2.8,1.6-6.2,2.4-10.2,2.4
			c-4,0-7.3-0.8-10.2-2.4C1423,838.8,1421.6,836.8,1421.6,834.6z"/>
	</g>
	<g id="x_symbol_1_">
		<g>
			
				<linearGradient id="SVGID_34_" gradientUnits="userSpaceOnUse" x1="1275.6948" y1="661.8021" x2="1378.2865" y2="661.8021" gradientTransform="matrix(0.5 -0.866 -0.866 -0.5 1011.7897 1752.3254)">
				<stop  offset="0" style="stop-color:#5652CC"/>
				<stop  offset="0.2977" style="stop-color:#5E5AD5"/>
				<stop  offset="0.7874" style="stop-color:#7471EE"/>
				<stop  offset="1" style="stop-color:#807DFB"/>
			</linearGradient>
			<path class="st47" d="M1071.1,296.1c0,11.7,4.1,19.9,10.7,23.7l15.1,8.7c-6.6-3.8-10.7-12-10.8-23.7c0-23.2,16.2-51.3,36.2-62.8
				c10-5.7,19-6.2,25.5-2.5l-15.1-8.7c-6.5-3.8-15.6-3.2-25.5,2.5C1087.4,244.8,1071.1,272.9,1071.1,296.1z"/>
			<path class="st3" d="M1086.3,304.8c0,23.2,16.2,32.7,36.3,21.2c20-11.5,36.3-39.6,36.3-62.8c0-23.2-16.2-32.7-36.3-21.2
				C1102.5,253.5,1086.3,281.6,1086.3,304.8z"/>
			<polygon class="st26" points="1132.3,262.2 1138.2,265.6 1129.1,281.4 1138.2,286.7 1132.3,296.8 1123.2,291.6 1114.1,307.4 
				1108.2,304 1117.3,288.2 1108.2,282.9 1114.1,272.7 1123.2,278 			"/>
		</g>
	</g>
	<g id="x_symbol_on_the_ground">
		<linearGradient id="SVGID_35_" gradientUnits="userSpaceOnUse" x1="1481.2693" y1="1016.6246" x2="1583.8085" y2="1016.6246">
			<stop  offset="0.4265" style="stop-color:#C4C9E4"/>
			<stop  offset="0.5766" style="stop-color:#D7DAED"/>
			<stop  offset="0.8459" style="stop-color:#F4F5FA"/>
			<stop  offset="1" style="stop-color:#FFFFFF"/>
		</linearGradient>
		<path class="st48" d="M1568.7,995.6c-10.7-6.2-25-9-39-8.6h-21.9v3.6c-4.2,1.3-8.1,3-11.6,5c-19.9,11.6-19.8,30.4,0.2,42
			c3.5,2,7.3,3.6,11.4,4.9v3.8h26.3c12.7-0.2,25.2-3.1,34.8-8.7C1588.9,1026,1588.8,1007.2,1568.7,995.6z"/>
		<g>
			<linearGradient id="SVGID_36_" gradientUnits="userSpaceOnUse" x1="1458.6636" y1="1022.6983" x2="1561.2524" y2="1022.6983">
				<stop  offset="0" style="stop-color:#807DFB"/>
				<stop  offset="0.2126" style="stop-color:#7471EE"/>
				<stop  offset="0.7023" style="stop-color:#5E5AD5"/>
				<stop  offset="1" style="stop-color:#5652CC"/>
			</linearGradient>
			<path class="st49" d="M1473.8,1037.6c-10.1-5.8-15.2-13.5-15.1-21.1l0-17.4c0,7.7,5,15.3,15.1,21.2c20.1,11.6,52.6,11.6,72.5,0
				c9.9-5.8,14.9-13.3,14.9-20.9l0,17.4c0,7.5-5,15.1-14.9,20.9C1526.4,1049.2,1493.9,1049.2,1473.8,1037.6z"/>
			<path class="st0" d="M1473.8,1020.2c-20.1-11.6-20.2-30.4-0.2-42c20-11.6,52.4-11.6,72.5,0c20.1,11.6,20.2,30.4,0.2,42
				C1526.4,1031.8,1493.9,1031.8,1473.8,1020.2z"/>
			<polygon class="st24" points="1533.7,1001.6 1533.7,994.8 1515.5,994.8 1515.5,984.3 1503.7,984.3 1503.7,994.8 1485.5,994.8 
				1485.5,1001.6 1503.7,1001.6 1503.7,1012.1 1515.5,1012.1 1515.5,1001.6 			"/>
		</g>
	</g>
	<g id="Woman_near_screen">
		<g id="Desk">
			
				<image style="overflow:visible;" width="267" height="154" xlink:href="835EBF35B46E7FA5.png"  transform="matrix(1 0 0 1 1617 984)">
			</image>
			<g>
				<path class="st0" d="M1644.7,1001.3c-5-2.9-5-7.7,0-10.6l138.4-79.9c5-2.9,13.3-2.9,18.3,0l63.1,36.5c5,2.9,5,7.7,0,10.6
					l-138.4,79.9c-5,2.9-13.3,2.9-18.3,0L1644.7,1001.3z"/>
				<g>
					<g>
						<path class="st50" d="M1841.4,953.3C1841.4,953.3,1841.4,953.3,1841.4,953.3C1841.4,953.4,1841.4,953.3,1841.4,953.3z"/>
					</g>
					<g>
						<g>
							<polygon class="st50" points="1786.6,933.3 1792.6,929.9 1786.6,926.5 1780.7,929.9 							"/>
							<polygon class="st50" points="1776.7,939.1 1782.6,935.7 1776.7,932.3 1770.8,935.7 							"/>
							<polygon class="st50" points="1766.7,944.8 1772.6,941.4 1766.7,938 1760.8,941.4 							"/>
							<polygon class="st50" points="1756.7,950.6 1762.7,947.2 1756.7,943.8 1750.8,947.2 							"/>
							<polygon class="st50" points="1746.8,956.4 1752.7,952.9 1746.8,949.5 1740.8,952.9 							"/>
							<polygon class="st50" points="1736.8,962.1 1742.7,958.7 1736.8,955.3 1730.9,958.7 							"/>
							<polygon class="st50" points="1726.8,967.9 1732.7,964.5 1726.8,961 1720.9,964.5 							"/>
							<polygon class="st50" points="1716.9,973.6 1722.8,970.2 1716.9,966.8 1710.9,970.2 							"/>
							<polygon class="st50" points="1706.9,979.4 1712.8,976 1706.9,972.5 1701,976 							"/>
							<polygon class="st50" points="1696.9,985.1 1702.8,981.7 1696.9,978.3 1691,981.7 							"/>
							<polygon class="st50" points="1686.9,990.9 1692.9,987.5 1686.9,984.1 1681,987.5 							"/>
							<polygon class="st50" points="1677,996.7 1682.9,993.2 1677,989.8 1671.1,993.2 							"/>
						</g>
						<polygon class="st50" points="1791.9,941.8 1802.5,935.7 1796.6,932.3 1786,938.4 						"/>
						<polygon class="st50" points="1797.4,949.7 1812.1,941.2 1806.2,937.8 1791.5,946.3 						"/>
						<polygon class="st50" points="1803.3,957.8 1822.1,947 1816.1,943.5 1797.4,954.4 						"/>
						<polygon class="st50" points="1823.5,960.1 1834.1,953.9 1826.1,949.3 1815.5,955.4 						"/>
						<polygon class="st50" points="1808.8,968.5 1819.4,962.4 1811.4,957.8 1800.8,963.9 						"/>
						<polygon class="st50" points="1794.1,977 1804.7,970.9 1796.7,966.3 1786.1,972.4 						"/>
						<polygon class="st50" points="1743.4,1006.3 1754.1,1000.1 1746.1,995.5 1735.4,1001.6 						"/>
						<polygon class="st50" points="1718.5,1020.6 1739.4,1008.6 1731.4,1004 1710.5,1016 						"/>
						<polygon class="st50" points="1758.1,997.8 1790,979.4 1782,974.7 1750.1,993.2 						"/>
						<polygon class="st50" points="1779.1,949.2 1787.8,944.2 1781.9,940.7 1773.2,945.8 						"/>
						<polygon class="st50" points="1784.6,957 1793.3,952 1787.4,948.6 1778.7,953.6 						"/>
						<polygon class="st50" points="1790.3,965 1799,960 1793.1,956.5 1784.4,961.6 						"/>
						<polygon class="st50" points="1777.5,972.3 1786.2,967.3 1780.3,963.9 1771.6,968.9 						"/>
						<polygon class="st50" points="1764.8,979.7 1773.5,974.7 1767.6,971.3 1758.8,976.3 						"/>
						<polygon class="st50" points="1752,987.1 1760.7,982 1754.8,978.6 1746.1,983.7 						"/>
						<polygon class="st50" points="1739.2,994.4 1748,989.4 1742,986 1733.3,991 						"/>
						<polygon class="st50" points="1726.5,1001.8 1735.2,996.8 1729.3,993.4 1720.6,998.4 						"/>
						<polygon class="st50" points="1706.2,1013.5 1722.4,1004.2 1716.5,1000.7 1700.3,1010.1 						"/>
						<polygon class="st50" points="1771.9,964.4 1780.6,959.4 1774.7,956 1766,961 						"/>
						<polygon class="st50" points="1759.1,971.8 1767.8,966.7 1761.9,963.3 1753.2,968.4 						"/>
						<polygon class="st50" points="1746.4,979.1 1755.1,974.1 1749.1,970.7 1740.4,975.7 						"/>
						<polygon class="st50" points="1733.6,986.5 1742.3,981.5 1736.4,978.1 1727.7,983.1 						"/>
						<polygon class="st50" points="1720.8,993.9 1729.5,988.8 1723.6,985.4 1714.9,990.5 						"/>
						<polygon class="st50" points="1696.5,1007.9 1716.8,996.2 1710.9,992.8 1690.6,1004.5 						"/>
						<polygon class="st50" points="1766.4,956.6 1775.1,951.5 1769.2,948.1 1760.4,953.1 						"/>
						<polygon class="st50" points="1753.6,963.9 1762.3,958.9 1756.4,955.5 1747.7,960.5 						"/>
						<polygon class="st50" points="1740.9,971.3 1749.6,966.3 1743.6,962.8 1734.9,967.9 						"/>
						<polygon class="st50" points="1728.1,978.7 1736.8,973.6 1730.9,970.2 1722.2,975.2 						"/>
						<polygon class="st50" points="1715.3,986 1724,981 1718.1,977.6 1709.4,982.6 						"/>
						<polygon class="st50" points="1702.6,993.4 1711.3,988.4 1705.4,984.9 1696.7,990 						"/>
						<polygon class="st50" points="1686.9,1002.4 1698.5,995.7 1692.6,992.3 1681,999 						"/>
					</g>
				</g>
				<path class="st51" d="M1864.6,957.8l-138.4,79.9c-5,2.9-13.3,2.9-18.3,0l-63.1-36.5c-2.5-1.5-3.8-3.4-3.8-5.3v4h0
					c0,1.9,1.2,3.9,3.8,5.3l63.1,36.5c5,2.9,13.3,2.9,18.3,0l138.4-79.9c2.6-1.5,3.8-3.5,3.8-5.4l0,0v-3.9
					C1868.4,954.5,1867.1,956.4,1864.6,957.8z"/>
			</g>
			<g>
				<linearGradient id="SVGID_37_" gradientUnits="userSpaceOnUse" x1="1792.7367" y1="904.1598" x2="1633.4054" y2="855.1686">
					<stop  offset="0" style="stop-color:#34318F"/>
					<stop  offset="1" style="stop-color:#6A6AE2"/>
				</linearGradient>
				<path class="st52" d="M1635.5,864.9c0-5.8,4.1-13,9.2-15.9l138.4-79.9c5-2.9,9.2-0.5,9.2,5.3v120.5c0,5.8-4.1,13-9.2,15.9
					l-138.4,79.9c-5,2.9-9.2,0.5-9.2-5.3V864.9z"/>
				<linearGradient id="SVGID_38_" gradientUnits="userSpaceOnUse" x1="1614.8759" y1="977.8378" x2="1749.193" y2="745.1937">
					<stop  offset="0.396" style="stop-color:#34318F"/>
					<stop  offset="0.4786" style="stop-color:#4141AA"/>
				</linearGradient>
				<path class="st53" d="M1635.5,985.4V864.9c0-5.8,4.1-13,9.2-15.9l138.4-79.9c2.5-1.4,4.8-1.6,6.4-0.7l-4.8-2.8l0,0
					c-1.7-1.1-4-1-6.6,0.5l-138.4,79.9c-5,2.9-9.2,10.1-9.2,15.9v120.5c0,3,1.1,5.1,2.9,6l4.6,2.6
					C1636.5,990.2,1635.5,988.2,1635.5,985.4z"/>
			</g>
		</g>
		<g id="Woman">
			<g>
				
					<linearGradient id="SVGID_39_" gradientUnits="userSpaceOnUse" x1="1882.2357" y1="1128.1946" x2="1918.5654" y2="1128.1946" gradientTransform="matrix(1 0 0 1 -136.3549 0)">
					<stop  offset="0" style="stop-color:#5655C2"/>
					<stop  offset="0.655" style="stop-color:#3E3B9A"/>
					<stop  offset="1" style="stop-color:#34318B"/>
				</linearGradient>
				<path class="st54" d="M1782.2,1135.1c0-14.2-9-14.6-9-14.6s-4.9,0-12.8-3.3c-7.8-3.3-18.9-2-12.7,9.4c0.1,0.1,0.1,0.3,0.2,0.4
					c0.4,0.6,1,1.2,2,1.8l19.7,11.6C1772.6,1142,1782.1,1138.1,1782.2,1135.1z"/>
				<path class="st55" d="M1782.2,1133.9C1782.2,1133.9,1782.2,1133.9,1782.2,1133.9c-0.2,2.9-9.6,6.8-12.6,5.1l-19.7-11.6
					c-0.7-0.4-1.8-1.1-2.8-2c0.2,0.4,0.3,0.8,0.6,1.2c0.1,0.1,0.1,0.3,0.2,0.4c0.4,0.6,1,1.2,2,1.8l19.7,11.6
					c2.8,1.6,11.4-1.8,12.5-4.6c0-0.2,0.1-0.4,0.1-0.6C1782.2,1134.7,1782.2,1134.3,1782.2,1133.9z"/>
				<path class="st56" d="M1778.5,1118.6c-2.3,0-10.5,2.1-10.5,2.1s-0.1,1.1-0.7,2.1c-0.1,0.1-0.2,0.2-0.2,0.3c0,0,0,0,0,0
					c-1.6,1.1-3.2,2.9,0.6,5.3c3.1,2,5.7,0.7,6.9-0.5c0.5-0.9,1.2-1.9,2.2-2.5c1-0.6,1.7-0.9,2.1-0.9c0-0.1,0-0.2,0-0.2
					S1778.6,1120.8,1778.5,1118.6z"/>
				
					<linearGradient id="SVGID_40_" gradientUnits="userSpaceOnUse" x1="1895.8187" y1="1081.0826" x2="2036.3702" y2="1081.0826" gradientTransform="matrix(1 0 0 1 -136.3549 0)">
					<stop  offset="0.2865" style="stop-color:#34318B"/>
					<stop  offset="1" style="stop-color:#4241A6"/>
				</linearGradient>
				<path class="st57" d="M1781.4,1064.3c1.1,15-2.5,57-2.5,57h0c-0.1,0.7-0.9,1.5-1.9,2c-2.1,1.2-5.6,1.2-7.8,0
					c-0.9-0.5-1.4-1.1-1.5-1.7h0c0,0-10.9-64.9-7.7-81.5h0c0-0.8,0.1-1.5,0.4-2.1C1760.5,1045.4,1774.1,1057,1781.4,1064.3z"/>
			</g>
			<g>
				
					<linearGradient id="SVGID_41_" gradientUnits="userSpaceOnUse" x1="1910.2222" y1="1109.0732" x2="1946.549" y2="1109.0732" gradientTransform="matrix(1 0 0 1 -136.3549 0)">
					<stop  offset="0" style="stop-color:#5655C2"/>
					<stop  offset="0.655" style="stop-color:#3E3B9A"/>
					<stop  offset="1" style="stop-color:#34318B"/>
				</linearGradient>
				<path class="st58" d="M1810.2,1116c0-14.2-9-14.6-9-14.6s-4.9,0-12.8-3.3c-7.8-3.3-18.9-2-12.7,9.4c0.1,0.1,0.1,0.3,0.2,0.4
					c0.4,0.6,1,1.2,2,1.8l19.7,11.6C1800.6,1122.9,1810.1,1119,1810.2,1116z"/>
				<path class="st55" d="M1810.1,1114.7C1810.1,1114.7,1810.1,1114.7,1810.1,1114.7c-0.2,2.9-9.6,6.8-12.6,5.1l-19.7-11.6
					c-0.7-0.4-1.8-1.1-2.8-2c0.2,0.4,0.3,0.8,0.6,1.2c0.1,0.1,0.1,0.3,0.2,0.4c0.4,0.6,1,1.2,2,1.8l19.7,11.6
					c2.8,1.6,11.4-1.8,12.5-4.6c0-0.2,0.1-0.4,0.1-0.6C1810.2,1115.6,1810.2,1115.2,1810.1,1114.7z"/>
				<path class="st56" d="M1806.5,1099.5c-2.3,0-10.5,2.1-10.5,2.1s-0.1,1.1-0.7,2.1c-0.1,0.1-0.2,0.2-0.2,0.3c0,0,0,0,0,0
					c-1.6,1.1-3.3,2.9,0.6,5.3c3.1,2,5.7,0.7,6.9-0.5c0.5-0.9,1.2-1.9,2.2-2.5c1-0.6,1.7-0.9,2.1-0.9c0-0.1,0-0.2,0-0.2
					S1807.5,1099.5,1806.5,1099.5z"/>
				<path class="st59" d="M1787.3,1030c1.8,6.1,15.4,13.7,17.7,15.2c1.5,17.1,1.9,57,1.9,57h0c-0.1,0.7-0.9,1.5-1.9,2
					c-2.1,1.2-5.6,1.2-7.8,0c-0.9-0.5-1.4-1.1-1.5-1.7h0C1795.7,1102.4,1786.9,1046.3,1787.3,1030z"/>
			</g>
			<g>
				<linearGradient id="SVGID_42_" gradientUnits="userSpaceOnUse" x1="1875.8202" y1="1169.7887" x2="2062.8323" y2="1169.7887">
					<stop  offset="0" style="stop-color:#D3D8F2"/>
					<stop  offset="0.5474" style="stop-color:#EEF0FA"/>
					<stop  offset="1" style="stop-color:#FFFFFF"/>
				</linearGradient>
				<polygon class="st60" points="1982.9,1109.2 1875.8,1109.2 1980.8,1169.8 1875.8,1230.4 1982.9,1230.4 2062.8,1184.3 
					2062.8,1155.3 				"/>
				<g>
					<polygon class="st33" points="1875.8,1230.4 1980.8,1169.8 1980.8,1091.3 1875.8,1152 					"/>
					<polygon class="st29" points="1875.8,1230.4 1770.8,1169.8 1770.8,1091.3 1875.8,1152 					"/>
					<polygon class="st0" points="1875.8,1152 1770.8,1091.3 1875.8,1030.7 1980.8,1091.3 					"/>
				</g>
			</g>
			<linearGradient id="SVGID_43_" gradientUnits="userSpaceOnUse" x1="1849.5201" y1="1069.6785" x2="1980.8397" y2="1069.6785">
				<stop  offset="0" style="stop-color:#D3D8F2"/>
				<stop  offset="0.5474" style="stop-color:#EEF0FA"/>
				<stop  offset="1" style="stop-color:#FFFFFF"/>
			</linearGradient>
			<path class="st61" d="M1849.5,1096.5c16.6,2.3,78.8,5.6,120.6,0.9l10.7-6.2l-89.7-51.8L1849.5,1096.5z"/>
			<g>
				<g>
					
						<linearGradient id="SVGID_44_" gradientUnits="userSpaceOnUse" x1="1682.8064" y1="972.9291" x2="1719.2422" y2="972.9291" gradientTransform="matrix(-1 0 0 1 3516.5464 0)">
						<stop  offset="0" style="stop-color:#C4CAE9"/>
						<stop  offset="1" style="stop-color:#FFFFFF"/>
					</linearGradient>
					<path class="st62" d="M1824.2,984.1c-2.1-1.6-4.3-3.2-6.7-5c-0.2-0.5-0.2-0.9-0.2-1.4c-0.6-0.3-1.2-0.5-1.5-0.4
						c-1.9,0.1-3.3,0-4.4-0.4c0,0,0,0,0,0c-3.9-1-8.5-4.1-9.8-5.2c1.9-1.8,4.1,0.2,5.5,1c-0.3-0.5-0.6-1-1.1-1.4
						c-2.4-2.4-2.9-3.2-5.5-3.2c-2.6,0-4.7-2.1-2.1-3.7c1.5-1,3.5-1.8,4.1-2.1c2.6-1.3,6.9-0.3,8,0.6c1.2,0.8,8.4,5.3,9.8,8.1
						c0,0,0.8,0.4,1.6,0.8c0.7-0.3,1.4-0.4,2-0.3c3.7,1.6,6.9,3.1,9.7,4.3C1833.5,979.3,1824.2,984.1,1824.2,984.1z"/>
					<path class="st63" d="M1798.8,961.7c1.5-1,3.5-1.8,4.1-2.1c2.6-1.3,6.9-0.3,8,0.6c1.2,0.8,8.4,5.3,9.8,8.1c0,0,2.7,1.4,3.8,2
						l-4,6.1c0,0-3.5-1.9-4.3-1.8c-1.9,0.1-3.3,0-4.4-0.4c0,0,0,0,0,0c-3.9-1-8.5-4.1-9.8-5.2c1.9-1.8,4.1,0.2,5.5,1
						c-0.3-0.5-0.6-1-1.1-1.4c-2.4-2.4-2.9-3.2-5.5-3.2C1798.3,965.4,1796.3,963.2,1798.8,961.7z"/>
					
						<linearGradient id="SVGID_45_" gradientUnits="userSpaceOnUse" x1="1600.0636" y1="988.3172" x2="1590.2787" y2="975.9573" gradientTransform="matrix(-1 0 0 1 3430.7839 0)">
						<stop  offset="0" style="stop-color:#DD3B10"/>
						<stop  offset="2.917099e-02" style="stop-color:#DE3E10"/>
						<stop  offset="0.4646" style="stop-color:#EF6A0C"/>
						<stop  offset="0.8026" style="stop-color:#F9860A"/>
						<stop  offset="1" style="stop-color:#FD9009"/>
					</linearGradient>
					<path class="st64" d="M1817.9,976.4c-1.4-4.2,3.6-7.8,6.5-7.6c13.7,6,20.3,9.5,25,8.1c19.7-9.2,12,11.7,0.4,12.8
						C1836.1,990.9,1828.8,984.8,1817.9,976.4z"/>
				</g>
				<path class="st59" d="M1787.3,1030c0.4-15.9,76,7.3,84.5,9c3.6,15.5,7.9,26.4,11.5,39.6c-14.2,4.7-54.9-15.2-78.3-33.4
					C1802.7,1043.7,1789.1,1036.1,1787.3,1030z"/>
				
					<linearGradient id="SVGID_46_" gradientUnits="userSpaceOnUse" x1="1895.819" y1="1065.8217" x2="2036.3698" y2="1065.8217" gradientTransform="matrix(1 0 0 1 -136.3549 0)">
					<stop  offset="0.2865" style="stop-color:#34318B"/>
					<stop  offset="1" style="stop-color:#4241A6"/>
				</linearGradient>
				<path class="st65" d="M1844.4,1058.6c8.3-13.4,30.2-28.3,55.6-15.8c0,6.1-0.9,20.3-2.9,25.6c-5.5,14.6-17.4,27.8-42.6,28.4
					c-13.3,0.3-49.2-11.9-73.1-32.5c-7.3-7.3-20.9-18.9-20.9-26.4C1767.3,1024.8,1835.9,1056.9,1844.4,1058.6z"/>
				<g>
					
						<linearGradient id="SVGID_47_" gradientUnits="userSpaceOnUse" x1="1972.6715" y1="1011.5309" x2="2036.6923" y2="1011.5309" gradientTransform="matrix(1 0 0 1 -136.3549 0)">
						<stop  offset="0" style="stop-color:#FD9009"/>
						<stop  offset="0.1974" style="stop-color:#F9860A"/>
						<stop  offset="0.5354" style="stop-color:#EF6A0C"/>
						<stop  offset="0.9708" style="stop-color:#DE3E10"/>
						<stop  offset="1" style="stop-color:#DD3B10"/>
					</linearGradient>
					<path class="st66" d="M1878.9,1072.5c-21.1,11.8-47.9,7-38-16.9c5.4-11.5,7.5-31.5,7.1-43.4c-2-4.5-8.2-5.9-11.2-17.7
						c-0.7-9.1-0.8-12.7,0.9-30.7c7.6-9,11.1-13.1,19.6-16.4c5.1-2,11.8-4.6,16.7-1.6c21.2,13.1,28,52.6,26,97.1
						C1897.8,1057.4,1889.3,1066.7,1878.9,1072.5z"/>
					<path class="st56" d="M1869.4,947.7c-3.5-3.5-4.7-11.3-5.1-17.5c0.5-3.4,0.4-7-0.4-10.8c-2.9-13.4-13.7-22.4-24.2-20.1
						c-10.5,2.3-16.6,14.9-13.8,28.3c2.7,12.4,12.9,19.5,22.5,20.9c1,1.9-1.5,5.1-2.9,6.6c7.9,2.4,15.7-2.2,19.7-4.2
						C1867.4,949.8,1868.9,948.8,1869.4,947.7z"/>
				</g>
				<g>
					
						<linearGradient id="SVGID_48_" gradientUnits="userSpaceOnUse" x1="1715.4211" y1="992.2803" x2="1764.3463" y2="992.2803" gradientTransform="matrix(-1 0 0 1 3516.5464 0)">
						<stop  offset="0" style="stop-color:#C4CAE9"/>
						<stop  offset="1" style="stop-color:#FFFFFF"/>
					</linearGradient>
					<path class="st67" d="M1753.4,981.1c1.5-0.9,3.5-1.8,4.1-2.1c2.6-1.3,6.9-0.3,8,0.6c1.2,0.8,3.8,2.4,5.8,4.1
						c-1.7-1.7-3.8-3.2-2.6-5c5.8,1.7,8,8.6,8,9.2c0,0,0.9,0.5,1.8,0.9c0.5-0.1,0.9-0.2,1.4-0.1c8.3,3.6,15.6,7,21.2,8.8l-15,8.7
						c-4.3-3.1-8.5-6.7-12.6-9.9c-0.1-0.4-0.1-0.7-0.2-1.1c-7.8,0.5-9.9-4.8-12.3-7.1c-2.4-2.4-2.9-3.2-5.5-3.2
						C1752.8,984.8,1750.8,982.7,1753.4,981.1z"/>
					<path class="st63" d="M1779.9,986.6c-1.1-0.5-2.8-1.5-2.8-1.5c0-0.6-2.2-7.5-8-9.2c-1.2,1.8,0.9,3.3,2.6,5
						c-2-1.6-4.7-3.2-5.8-4.1c-1.2-0.8-5.4-1.8-8-0.6c-0.6,0.3-2.6,1.1-4.1,2.1c-2.5,1.6-0.5,3.7,2.1,3.7c2.6,0,3.2,0.8,5.5,3.2
						c2.4,2.4,4.4,7.6,12.3,7.1c0.8-0.1,1.8,0.7,1.8,0.7L1779.9,986.6z"/>
					
						<linearGradient id="SVGID_49_" gradientUnits="userSpaceOnUse" x1="990.4598" y1="980.3428" x2="909.835" y2="1002.1066" gradientTransform="matrix(1 0 0 1 863.5121 0)">
						<stop  offset="0" style="stop-color:#DD3B10"/>
						<stop  offset="2.917099e-02" style="stop-color:#DE3E10"/>
						<stop  offset="0.4646" style="stop-color:#EF6A0C"/>
						<stop  offset="0.8026" style="stop-color:#F9860A"/>
						<stop  offset="1" style="stop-color:#FD9009"/>
					</linearGradient>
					<path class="st68" d="M1773.8,993.5c-1.4-4.2,3.6-7.8,6.5-7.6c13.7,6,24.8,11.3,29.5,9.9c19.7-9.2,25.3-26.7,30.2-31.2
						c11-7.8,24.2,9.5,9.8,25.1c-15.2,14.2-28.3,21.2-40,22.2C1796.2,1013.1,1784.8,1001.9,1773.8,993.5z"/>
				</g>
				<path class="st55" d="M1887.2,956.6c0.7-7-5.2-9.6-11-14.9c-9.2-8.3-4.8-7-9.2-22.6c-4.4-15.6-17.1-27-33.6-21.4
					c-8.3,2.8-18.8,15.8-6.7,21.1c19.2,8.4,2.1,17.1,6.8,25.5c2.2,3.8,4.6,2.1,6.1,7.1c1.5,4.9-11.4,13.6-1,20.1
					c10.4,6.5,7.5,18.6,23,15.3c15.5-3.3,16.1-8.5,12.3-12.1c-3.8-3.6,8-5.2,3.6-10C1873.2,959.8,1886.6,962.8,1887.2,956.6z"/>
			</g>
		</g>
		<g id="Shapes_on_screen">
			<g>
				<polygon class="st25" points="1689.8,850.2 1662.5,866 1662.5,860.1 1689.8,844.4 				"/>
				<polygon class="st33" points="1675.7,888.4 1662.5,896.1 1662.5,901.9 1675.7,894.3 				"/>
				<polygon class="st25" points="1742.3,915.3 1729.1,922.9 1729.1,917.1 1742.3,909.5 				"/>
				<polygon class="st28" points="1765.3,806.6 1694.4,847.5 1694.4,841.7 1765.3,800.8 				"/>
				<polygon class="st27" points="1748.1,828.3 1677.3,869.2 1677.3,863.4 1748.1,822.5 				"/>
				<polygon class="st25" points="1737.3,846.4 1671.8,884.2 1671.8,878.4 1737.3,840.6 				"/>
				<polygon class="st27" points="1689.8,898.4 1662.5,914.2 1662.5,908.3 1689.8,892.6 				"/>
				<polygon class="st25" points="1765.3,854.8 1694.4,895.7 1694.4,889.9 1765.3,849 				"/>
				<polygon class="st25" points="1748.1,876.5 1677.3,917.4 1677.3,911.6 1748.1,870.7 				"/>
				<polygon class="st28" points="1748.1,894.3 1677.3,935.2 1677.3,941.1 1748.1,900.2 				"/>
				<polygon class="st25" points="1759.4,881.8 1689.8,922 1689.8,916.2 1759.4,876 				"/>
			</g>
		</g>
	</g>
	<g id="Man_near_screen">
		<g id="Desk_1_">
			
				<image style="overflow:visible;" width="267" height="154" xlink:href="835EBF35B46E7FA7.png"  transform="matrix(1 0 0 1 1302 1166)">
			</image>
			<g>
				<path class="st0" d="M1329.6,1183.2c-5-2.9-5-7.7,0-10.6l138.4-79.9c5-2.9,13.3-2.9,18.3,0l63.1,36.5c5,2.9,5,7.7,0,10.6
					l-138.4,79.9c-5,2.9-13.3,2.9-18.3,0L1329.6,1183.2z"/>
				<g>
					<g>
						<path class="st50" d="M1526.3,1135.2C1526.3,1135.2,1526.3,1135.3,1526.3,1135.2C1526.3,1135.3,1526.3,1135.2,1526.3,1135.2z"
							/>
					</g>
					<g>
						<g>
							<polygon class="st50" points="1471.6,1115.3 1477.5,1111.8 1471.6,1108.4 1465.7,1111.8 							"/>
							<polygon class="st50" points="1461.6,1121 1467.5,1117.6 1461.6,1114.2 1455.7,1117.6 							"/>
							<polygon class="st50" points="1451.6,1126.8 1457.6,1123.3 1451.6,1119.9 1445.7,1123.3 							"/>
							<polygon class="st50" points="1441.7,1132.5 1447.6,1129.1 1441.7,1125.7 1435.8,1129.1 							"/>
							<polygon class="st50" points="1431.7,1138.3 1437.6,1134.9 1431.7,1131.4 1425.8,1134.9 							"/>
							<polygon class="st50" points="1421.7,1144 1427.7,1140.6 1421.7,1137.2 1415.8,1140.6 							"/>
							<polygon class="st50" points="1411.8,1149.8 1417.7,1146.4 1411.8,1143 1405.8,1146.4 							"/>
							<polygon class="st50" points="1401.8,1155.5 1407.7,1152.1 1401.8,1148.7 1395.9,1152.1 							"/>
							<polygon class="st50" points="1391.8,1161.3 1397.7,1157.9 1391.8,1154.5 1385.9,1157.9 							"/>
							<polygon class="st50" points="1381.9,1167.1 1387.8,1163.6 1381.9,1160.2 1375.9,1163.6 							"/>
							<polygon class="st50" points="1371.9,1172.8 1377.8,1169.4 1371.9,1166 1366,1169.4 							"/>
							<polygon class="st50" points="1361.9,1178.6 1367.8,1175.2 1361.9,1171.7 1356,1175.2 							"/>
						</g>
						<polygon class="st50" points="1476.8,1123.7 1487.5,1117.6 1481.6,1114.2 1470.9,1120.3 						"/>
						<polygon class="st50" points="1482.3,1131.6 1497,1123.1 1491.1,1119.7 1476.4,1128.2 						"/>
						<polygon class="st50" points="1488.3,1139.7 1507,1128.9 1501.1,1125.4 1482.3,1136.3 						"/>
						<polygon class="st50" points="1508.4,1142 1519.1,1135.8 1511,1131.2 1500.4,1137.3 						"/>
						<polygon class="st50" points="1493.7,1150.5 1504.4,1144.3 1496.4,1139.7 1485.7,1145.8 						"/>
						<polygon class="st50" points="1479,1158.9 1489.7,1152.8 1481.7,1148.2 1471,1154.3 						"/>
						<polygon class="st50" points="1428.4,1188.2 1439,1182 1431,1177.4 1420.4,1183.6 						"/>
						<polygon class="st50" points="1403.5,1202.6 1424.4,1190.5 1416.3,1185.9 1395.5,1197.9 						"/>
						<polygon class="st50" points="1443,1179.7 1475,1161.3 1467,1156.7 1435,1175.1 						"/>
						<polygon class="st50" points="1464.1,1131.1 1472.8,1126.1 1466.9,1122.7 1458.2,1127.7 						"/>
						<polygon class="st50" points="1469.6,1139 1478.3,1133.9 1472.4,1130.5 1463.7,1135.5 						"/>
						<polygon class="st50" points="1475.2,1146.9 1483.9,1141.9 1478,1138.4 1469.3,1143.5 						"/>
						<polygon class="st50" points="1462.5,1154.3 1471.2,1149.2 1465.3,1145.8 1456.5,1150.8 						"/>
						<polygon class="st50" points="1449.7,1161.6 1458.4,1156.6 1452.5,1153.2 1443.8,1158.2 						"/>
						<polygon class="st50" points="1436.9,1169 1445.7,1164 1439.7,1160.5 1431,1165.6 						"/>
						<polygon class="st50" points="1424.2,1176.4 1432.9,1171.3 1427,1167.9 1418.3,1172.9 						"/>
						<polygon class="st50" points="1411.4,1183.7 1420.1,1178.7 1414.2,1175.3 1405.5,1180.3 						"/>
						<polygon class="st50" points="1391.1,1195.4 1407.4,1186.1 1401.5,1182.6 1385.2,1192 						"/>
						<polygon class="st50" points="1456.8,1146.3 1465.5,1141.3 1459.6,1137.9 1450.9,1142.9 						"/>
						<polygon class="st50" points="1444.1,1153.7 1452.8,1148.7 1446.8,1145.2 1438.1,1150.3 						"/>
						<polygon class="st50" points="1431.3,1161.1 1440,1156 1434.1,1152.6 1425.4,1157.6 						"/>
						<polygon class="st50" points="1418.5,1168.4 1427.2,1163.4 1421.3,1160 1412.6,1165 						"/>
						<polygon class="st50" points="1405.8,1175.8 1414.5,1170.8 1408.6,1167.3 1399.9,1172.4 						"/>
						<polygon class="st50" points="1381.4,1189.8 1401.7,1178.1 1395.8,1174.7 1375.5,1186.4 						"/>
						<polygon class="st50" points="1451.3,1138.5 1460,1133.4 1454.1,1130 1445.4,1135.1 						"/>
						<polygon class="st50" points="1438.6,1145.8 1447.3,1140.8 1441.3,1137.4 1432.6,1142.4 						"/>
						<polygon class="st50" points="1425.8,1153.2 1434.5,1148.2 1428.6,1144.8 1419.9,1149.8 						"/>
						<polygon class="st50" points="1413,1160.6 1421.7,1155.5 1415.8,1152.1 1407.1,1157.2 						"/>
						<polygon class="st50" points="1400.3,1167.9 1409,1162.9 1403.1,1159.5 1394.4,1164.5 						"/>
						<polygon class="st50" points="1387.5,1175.3 1396.2,1170.3 1390.3,1166.9 1381.6,1171.9 						"/>
						<polygon class="st50" points="1371.9,1184.3 1383.5,1177.6 1377.5,1174.2 1366,1180.9 						"/>
					</g>
				</g>
				<path class="st51" d="M1549.5,1139.8l-138.4,79.9c-5,2.9-13.3,2.9-18.3,0l-63.1-36.5c-2.5-1.5-3.8-3.4-3.8-5.3v4l0,0
					c0,1.9,1.2,3.9,3.8,5.3l63.1,36.5c5,2.9,13.3,2.9,18.3,0l138.4-79.9c2.6-1.5,3.8-3.4,3.8-5.4l0,0v-3.9
					C1553.3,1136.4,1552.1,1138.3,1549.5,1139.8z"/>
			</g>
			<g>
				<linearGradient id="SVGID_50_" gradientUnits="userSpaceOnUse" x1="1477.6786" y1="1086.0764" x2="1318.3473" y2="1037.0852">
					<stop  offset="0" style="stop-color:#34318F"/>
					<stop  offset="1" style="stop-color:#6A6AE2"/>
				</linearGradient>
				<path class="st69" d="M1320.5,1046.8c0-5.8,4.1-13,9.2-15.9l138.4-79.9c5-2.9,9.2-0.5,9.2,5.3v120.5c0,5.8-4.1,13-9.2,15.9
					l-138.4,79.9c-5,2.9-9.2,0.5-9.2-5.3V1046.8z"/>
				<linearGradient id="SVGID_51_" gradientUnits="userSpaceOnUse" x1="1299.818" y1="1159.7543" x2="1434.135" y2="927.1104">
					<stop  offset="0.396" style="stop-color:#34318F"/>
					<stop  offset="0.4786" style="stop-color:#4141AA"/>
				</linearGradient>
				<path class="st70" d="M1320.5,1167.3v-120.5c0-5.8,4.1-13,9.2-15.9l138.4-79.9c2.5-1.4,4.8-1.6,6.4-0.7l-4.8-2.8l0,0
					c-1.7-1.1-4-1-6.6,0.5l-138.4,79.9c-5,2.9-9.2,10.1-9.2,15.9v120.5c0,3,1.1,5.1,2.9,6l4.6,2.6
					C1321.4,1172.1,1320.5,1170.1,1320.5,1167.3z"/>
			</g>
		</g>
		<g id="Man_on_block">
			<g>
				<g>
					
						<linearGradient id="SVGID_52_" gradientUnits="userSpaceOnUse" x1="1026.1012" y1="1297.2141" x2="1063.9561" y2="1297.2141" gradientTransform="matrix(1 0 0 1 431.0101 0)">
						<stop  offset="0" style="stop-color:#362E94"/>
						<stop  offset="1" style="stop-color:#362E94"/>
					</linearGradient>
					<path class="st71" d="M1495,1304.5c0-14.8-9.4-15.3-9.4-15.3s-5.1,0-13.4-3.4c-8.2-3.4-19.7-2.1-13.2,9.8
						c0.1,0.1,0.1,0.3,0.2,0.4c0.4,0.6,1.1,1.2,2.1,1.8l20.5,12C1485,1311.6,1494.9,1307.5,1495,1304.5z"/>
					<path class="st59" d="M1494.9,1303.1C1494.9,1303.1,1494.9,1303.1,1494.9,1303.1c-0.2,3-10,7.1-13.1,5.3l-20.5-12
						c-0.7-0.4-1.8-1.2-2.9-2.1c0.2,0.4,0.4,0.8,0.6,1.2c0.1,0.1,0.1,0.3,0.2,0.4c0.4,0.6,1.1,1.2,2.1,1.8l20.5,12
						c2.9,1.7,11.8-1.8,13-4.8c0.1-0.2,0.1-0.4,0.1-0.6C1495,1304,1494.9,1303.6,1494.9,1303.1z"/>
					<path class="st0" d="M1491.1,1287.3c-2.4,0-10.9,2.2-10.9,2.2s-0.1,1.2-0.8,2.2c-0.1,0.1-0.2,0.2-0.2,0.3c0,0,0,0,0,0
						c-1.7,1.2-3.4,3,0.6,5.5c3.3,2.1,5.9,0.8,7.2-0.5c0.5-1,1.3-2,2.3-2.6c1.1-0.6,1.7-0.9,2.2-0.9c0-0.1,0-0.2,0-0.2
						S1492.2,1287.3,1491.1,1287.3z"/>
					<path class="st59" d="M1571.2,1265.4c-3.8-13.8-5.5-28.4-9.2-44.5c-8.9-1.8-80-36.3-89.6-17.7c-0.3,0.6-0.5,1.4-0.5,2.2h0
						c-3.4,17.3,8,85,8,85h0c0.2,0.7,0.7,1.3,1.6,1.8c2.2,1.3,5.9,1.3,8.1,0c1-0.6,1.9-1.3,1.9-2.1h0c0,0,4.9-40.2,3.4-58
						C1519.4,1250.9,1556.5,1270.3,1571.2,1265.4z"/>
				</g>
			</g>
			<g>
				
					<linearGradient id="SVGID_53_" gradientUnits="userSpaceOnUse" x1="996.9374" y1="1317.1399" x2="1034.7954" y2="1317.1399" gradientTransform="matrix(1 0 0 1 431.0101 0)">
					<stop  offset="0" style="stop-color:#423EAF"/>
					<stop  offset="0.375" style="stop-color:#3D37A3"/>
					<stop  offset="1" style="stop-color:#362E94"/>
				</linearGradient>
				<path class="st72" d="M1465.8,1324.4c0-14.8-9.4-15.3-9.4-15.3s-5.1,0-13.4-3.4c-8.2-3.4-19.7-2.1-13.2,9.8
					c0.1,0.1,0.1,0.3,0.2,0.4c0.4,0.6,1.1,1.2,2.1,1.8l20.5,12C1455.8,1331.6,1465.7,1327.4,1465.8,1324.4z"/>
				<path class="st59" d="M1465.7,1323.1C1465.7,1323.1,1465.7,1323,1465.7,1323.1c-0.2,3-10,7.1-13.1,5.3l-20.5-12
					c-0.7-0.4-1.9-1.2-2.9-2.1c0.2,0.4,0.4,0.8,0.6,1.2c0.1,0.1,0.1,0.3,0.2,0.4c0.4,0.6,1.1,1.2,2.1,1.8l20.5,12
					c2.9,1.7,11.8-1.8,13-4.8c0-0.2,0.1-0.4,0.1-0.6C1465.8,1323.9,1465.8,1323.5,1465.7,1323.1z"/>
				<path class="st0" d="M1462,1307.2c-2.4,0-10.9,2.2-10.9,2.2s-0.1,1.2-0.8,2.2c-0.1,0.1-0.2,0.2-0.2,0.3c0,0,0,0,0,0
					c-1.7,1.2-3.4,3,0.6,5.5c3.3,2.1,5.9,0.7,7.2-0.5c0.5-1,1.3-2,2.3-2.6c1.1-0.6,1.7-0.9,2.2-0.9c0-0.1,0-0.2,0-0.2
					S1463,1307.2,1462,1307.2z"/>
				
					<linearGradient id="SVGID_54_" gradientUnits="userSpaceOnUse" x1="1011.0914" y1="1269.1439" x2="1157.558" y2="1269.1439" gradientTransform="matrix(1 0 0 1 431.0101 0)">
					<stop  offset="0" style="stop-color:#5652CC"/>
					<stop  offset="8.718117e-02" style="stop-color:#4E49BE"/>
					<stop  offset="0.2646" style="stop-color:#413AA7"/>
					<stop  offset="0.4316" style="stop-color:#393199"/>
					<stop  offset="0.5761" style="stop-color:#362E94"/>
				</linearGradient>
				<path class="st73" d="M1442.7,1225.3c-3.4,17.3,8,85,8,85h0c0.2,0.7,0.7,1.3,1.6,1.8c2.2,1.3,5.9,1.3,8.1,0c1-0.6,1.9-1.3,2-2.1
					h0c0,0,5-40.2,3.4-58.1C1457.6,1245.8,1442.7,1235.7,1442.7,1225.3z"/>
			</g>
			<g>
				<linearGradient id="SVGID_55_" gradientUnits="userSpaceOnUse" x1="1560.762" y1="1351.7054" x2="1772.8457" y2="1351.7054">
					<stop  offset="0" style="stop-color:#D3D8F2"/>
					<stop  offset="0.5474" style="stop-color:#EEF0FA"/>
					<stop  offset="1" style="stop-color:#FFFFFF"/>
				</linearGradient>
				<polygon class="st74" points="1667.8,1291.1 1560.8,1291.1 1665.8,1351.7 1560.8,1412.3 1667.8,1412.3 1772.8,1351.7 				"/>
				<g>
					<polygon class="st33" points="1560.8,1412.3 1665.8,1351.7 1665.8,1273.2 1560.8,1333.9 					"/>
					<polygon class="st29" points="1560.8,1412.3 1455.8,1351.7 1455.8,1273.2 1560.8,1333.9 					"/>
					<polygon class="st0" points="1560.8,1333.9 1455.8,1273.2 1560.8,1212.6 1665.8,1273.2 					"/>
				</g>
			</g>
			<linearGradient id="SVGID_56_" gradientUnits="userSpaceOnUse" x1="1540.6802" y1="1253.5764" x2="1665.7815" y2="1253.5764">
				<stop  offset="0" style="stop-color:#D3D8F2"/>
				<stop  offset="0.5474" style="stop-color:#EEF0FA"/>
				<stop  offset="1" style="stop-color:#FFFFFF"/>
			</linearGradient>
			<path class="st75" d="M1578.2,1222.7l-37.5,61.8c19.7-0.7,88,3.2,124.5-10.9l0.6-0.4L1578.2,1222.7z"/>
			<g>
				<g>
					<linearGradient id="SVGID_57_" gradientUnits="userSpaceOnUse" x1="1492.8442" y1="1165.0864" x2="1496.2395" y2="1156.9379">
						<stop  offset="0" style="stop-color:#C4CAE9"/>
						<stop  offset="0.292" style="stop-color:#D1D6EE"/>
						<stop  offset="0.8298" style="stop-color:#F3F4FA"/>
						<stop  offset="1" style="stop-color:#FFFFFF"/>
					</linearGradient>
					<path class="st76" d="M1508.9,1167.2c-2.4-2.1-2.1-1.7-4.8-3.8c-0.2-0.5-0.3-1-0.3-1.6c-0.7-0.3-1.4-0.5-1.7-0.5
						c-2.2,0.1-3.7,0-5-0.4c0,0,0,0,0,0c-1.8-0.5-5.8-11.4-15.1-10.8c2.6,2.1,6.1,6.4,5.4,6c0.1,0.1-2.1-1.6-4.3,0.4
						c1.5,1.2,6.7,4.7,11.1,5.9c0,0,0,0,0,0c1.2,0.4,2.8,0.6,5,0.4c0.3,0,0.9,0.2,1.7,0.5c0,0.5,0.1,1,0.3,1.6c2.2,1.7,4,3.2,5,4.1
						C1506.6,1168.6,1508.5,1167.5,1508.9,1167.2z"/>
					<linearGradient id="SVGID_58_" gradientUnits="userSpaceOnUse" x1="1449.1471" y1="1185.5017" x2="1454.925" y2="1171.6345">
						<stop  offset="0" style="stop-color:#C4CAE9"/>
						<stop  offset="1" style="stop-color:#FFFFFF"/>
					</linearGradient>
					<path class="st77" d="M1460.4,1180.1c-0.1-0.4-0.2-0.8-0.2-1.2c-8.8,0.5-11.2-5.4-13.8-8.1c-2.7-2.7-3.3-3.6-6.3-3.6
						c-3,0-5.3-2.4-2.4-4.2c0.7-0.4,1.5-0.9,2.2-1.2c-0.2,0.1-0.4,0.1-0.5,0.2c-0.7,0.3-2.9,1.3-4.6,2.3c-2.9,1.8-0.6,4.2,2.4,4.2
						c3,0,3.6,0.9,6.3,3.6c2.7,2.7,5,8.6,13.8,8.1c0,0.4,0.1,0.8,0.2,1.2c5.3,4.1,6.5,5.7,11.1,9.1l3.1-1.8
						C1467.2,1185.3,1465.6,1184.1,1460.4,1180.1z"/>
					
						<linearGradient id="SVGID_59_" gradientUnits="userSpaceOnUse" x1="1030.6194" y1="1185.0322" x2="1032.2571" y2="1181.1018" gradientTransform="matrix(-1 0 0 1 2567.2717 0)">
						<stop  offset="0" style="stop-color:#E19100"/>
						<stop  offset="0.5836" style="stop-color:#F3AC04"/>
						<stop  offset="1" style="stop-color:#FCBA06"/>
					</linearGradient>
					<path class="st78" d="M1531.2,1181.7c2.6,0.6,5.4,0.8,8.6,0.6c0.7-0.1,1.4-0.2,2.1-0.4c-1.6,1-3.3,1.6-5.1,1.8
						c-2.7,0.2-5.2,0.1-7.5-0.4C1529.9,1182.7,1530.6,1182.2,1531.2,1181.7z"/>
				</g>
				
					<linearGradient id="SVGID_60_" gradientUnits="userSpaceOnUse" x1="1011.0912" y1="1251.0537" x2="1157.5574" y2="1251.0537" gradientTransform="matrix(1 0 0 1 431.0101 0)">
					<stop  offset="0" style="stop-color:#5652CC"/>
					<stop  offset="8.718117e-02" style="stop-color:#4E49BE"/>
					<stop  offset="0.2646" style="stop-color:#413AA7"/>
					<stop  offset="0.4316" style="stop-color:#393199"/>
					<stop  offset="0.5761" style="stop-color:#362E94"/>
				</linearGradient>
				<path class="st79" d="M1532.8,1240.8c-8.9-1.8-80-36.3-89.6-17.7c-0.3,0.6-0.5,1.4-0.5,2.2h0c0,10.4,14.9,20.5,23.1,26.6
					c24.4,19,63.5,36.7,81.1,31.8c24.3-6.8,31-12.6,38.6-28.8c2.5-5.3,3-20.3,3-26.7C1562.1,1215.1,1541.5,1226.9,1532.8,1240.8z"/>
				<path class="st63" d="M1482.5,1146.8c1.7-1.1,4-2,4.6-2.3c3-1.4,7.8-0.3,9.1,0.6c1.3,0.9,9.5,6,11.1,9.2c0,0,3.1,1.6,4.3,2.2
					l-4.5,6.9c0,0-4-2.1-4.9-2c-2.2,0.1-3.7,0-5-0.4c0,0,0,0,0,0c-4.4-1.1-9.6-4.6-11.1-5.9c2.2-2,4.6,0.2,6.3,1.1
					c-0.3-0.6-0.7-1.1-1.2-1.6c-2.7-2.7-3.3-3.6-6.3-3.6C1481.9,1151,1479.7,1148.6,1482.5,1146.8z"/>
				
					<linearGradient id="SVGID_61_" gradientUnits="userSpaceOnUse" x1="1048.3031" y1="1177.7268" x2="1037.3173" y2="1163.85" gradientTransform="matrix(-1 0 0 1 2567.2717 0)">
					<stop  offset="0" style="stop-color:#DD3B10"/>
					<stop  offset="2.917099e-02" style="stop-color:#DE3E10"/>
					<stop  offset="0.4646" style="stop-color:#EF6A0C"/>
					<stop  offset="0.8026" style="stop-color:#F9860A"/>
					<stop  offset="1" style="stop-color:#FD9009"/>
				</linearGradient>
				<path class="st80" d="M1504.1,1163.4c-1.6-4.7,4-8.9,7.3-8.6c15.5,6.8,23,10.8,28.3,9.2c22.3-10.4,13.2,17,0,18.2
					C1524.3,1183.6,1516.5,1173,1504.1,1163.4z"/>
				<g>
					<path class="st81" d="M1568.6,1128.6c11.2,2.5,25.3,9.6,15.9,29.2C1578.2,1171.1,1568.6,1128.6,1568.6,1128.6z"/>
					
						<linearGradient id="SVGID_62_" gradientUnits="userSpaceOnUse" x1="1079.7014" y1="1197.2427" x2="1157.5574" y2="1197.2427" gradientTransform="matrix(1 0 0 1 431.0101 0)">
						<stop  offset="0" style="stop-color:#FD9009"/>
						<stop  offset="0.1974" style="stop-color:#F9860A"/>
						<stop  offset="0.5354" style="stop-color:#EF6A0C"/>
						<stop  offset="0.9708" style="stop-color:#DE3E10"/>
						<stop  offset="1" style="stop-color:#DD3B10"/>
					</linearGradient>
					<path class="st82" d="M1566.6,1259.1c-22,12.3-51.8,7.8-55.9-9.5c14.9-50.2,18.3-83.5,18-103.9c9.7-7.5,17.9-14.1,25-15.7
						c7.4-1.7,17.2-2.9,21.5,1.2c13.5,18.2,10,49.6,13.3,97C1586.2,1243.3,1577.4,1253,1566.6,1259.1z"/>
					<path class="st63" d="M1563.9,1129.5c-3.7-3.5-4.9-9.2-5.5-15.7c0.4-3.6,0.2-7.4-0.8-11.2c-3.5-13.8-15.1-22.8-25.9-20.1
						c-10.8,2.7-16.8,16.2-13.3,30c3.2,12.8,14.5,19.9,24.6,20.9c0.5,1.1-1.4,2.7-3.2,3.8c8.3,2.2,15.9-2.1,20-4.4
						C1562,1131.7,1563.4,1130.6,1563.9,1129.5z"/>
				</g>
				<path class="st63" d="M1467.3,1172.2c-1.2-0.6-3.2-1.6-3.2-1.6c0-0.7-2.5-8.5-9.1-10.4c-1.4,2.1,1,3.7,2.9,5.7
					c-2.3-1.8-5.3-3.7-6.6-4.6c-1.3-0.9-6.1-2.1-9.1-0.6c-0.7,0.3-2.9,1.3-4.6,2.3c-2.9,1.8-0.6,4.2,2.4,4.2c3,0,3.6,0.9,6.3,3.6
					c2.7,2.7,5,8.6,13.9,8.1c0.9-0.1,2,0.7,2,0.7L1467.3,1172.2z"/>
				<linearGradient id="SVGID_63_" gradientUnits="userSpaceOnUse" x1="1544.7686" y1="1163.4702" x2="1459.1835" y2="1186.573">
					<stop  offset="0" style="stop-color:#DD3B10"/>
					<stop  offset="2.917099e-02" style="stop-color:#DE3E10"/>
					<stop  offset="0.4646" style="stop-color:#EF6A0C"/>
					<stop  offset="0.8026" style="stop-color:#F9860A"/>
					<stop  offset="1" style="stop-color:#FD9009"/>
				</linearGradient>
				<path class="st83" d="M1460.4,1180.1c-1.6-4.7,4-8.9,7.3-8.6c15.5,6.8,23,10.8,28.3,9.2c22.3-10.4,27.1-29.9,32.6-35
					c12.4-8.9,27.4,10.7,11.1,28.4c-17.2,16.1-30.5,23.6-43.7,24.8C1480.6,1200.2,1472.8,1189.6,1460.4,1180.1z"/>
				<path class="st59" d="M1560.4,1099.9C1560.4,1099.9,1560.4,1099.9,1560.4,1099.9c-2.3-6.9-5.7-12.9-11.5-16.7
					c-15.1-10.1-21.3-9.1-22.8-6.8c-16.3-2-19.9,6.6-8.8,19c3.2,4.2,1.7,15.9,7.4,17.6c-0.7-2.6,3.4-10.2,6.4,1.6
					c0.3,1.3-0.6,1.7,0.7,3.2c1.3,1.5,7.7,4.3,12.1,7c6.2,3.7,7.9-1.5,16.3-2.6c-0.9-3.5-0.4-5.5,0.3-7.9
					C1560.9,1112.6,1561.7,1106.5,1560.4,1099.9z"/>
			</g>
		</g>
		<g id="Shapes_on_screen_1_">
			<polygon class="st27" points="1395.9,1111.7 1339.8,1144.1 1339.8,1108.9 1395.9,1076.5 			"/>
			<polygon class="st25" points="1398.8,1063 1340.8,1096.5 1340.8,1090.7 1398.8,1057.2 			"/>
			<polygon class="st25" points="1406.4,1044.2 1340.8,1082 1340.8,1076.2 1406.4,1038.3 			"/>
			<polygon class="st25" points="1378.6,1045.7 1340.8,1067.5 1340.8,1061.7 1378.6,1039.8 			"/>
			<polygon class="st25" points="1385.9,1027 1340.8,1053 1340.8,1047.2 1385.9,1021.1 			"/>
			<g>
				<path class="st84" d="M1437.1,1081.8c-5.8,3.4-10.5,0.6-10.5-6.1c0-6.7,4.7-14.9,10.5-18.3v-13.7c-12.4,7.1-22.4,24.5-22.4,38.8
					c0,14.3,10,20.1,22.4,12.9c12.4-7.1,22.4-24.5,22.4-38.8l-11.8,6.8C1447.7,1070.3,1443,1078.4,1437.1,1081.8z"/>
				<path class="st28" d="M1437.1,1043.8v13.7c5.8-3.4,10.5-0.6,10.5,6.1l11.8-6.8C1459.5,1042.4,1449.5,1036.6,1437.1,1043.8z"/>
			</g>
			<g>
				<path class="st28" d="M1437.1,983.6v13.7c5.8-3.4,10.5-0.6,10.5,6.1c0,6.7-4.7,14.9-10.5,18.3c-3.1,1.8-5.9,1.8-7.8,0.5
					l-8.7,14.2c4.1,2.8,10,2.7,16.5-1.1c12.4-7.1,22.4-24.5,22.4-38.8C1459.5,982.2,1449.5,976.5,1437.1,983.6z"/>
				<path class="st84" d="M1426.6,1015.5c0-6.7,4.7-14.9,10.5-18.3v-13.7c-12.4,7.1-22.4,24.5-22.4,38.8c0,6.7,2.2,11.5,5.8,14
					l8.7-14.2C1427.6,1020.9,1426.6,1018.7,1426.6,1015.5z"/>
			</g>
		</g>
	</g>
</g>
</svg>
