<?xml version="1.0" encoding="utf-8"?>
<!-- Generator: Adobe Illustrator 24.1.0, SVG Export Plug-In . SVG Version: 6.00 Build 0)  -->
<svg version="1.1" xmlns="http://www.w3.org/2000/svg" xmlns:xlink="http://www.w3.org/1999/xlink" x="0px" y="0px"
	 viewBox="0 0 2000 1500" style="enable-background:new 0 0 2000 1500;" xml:space="preserve">
<style type="text/css">
	.st0{fill:#FFFFFF;}
	.st1{fill:#F1F1F6;}
	.st2{fill:#CED3F8;}
	.st3{fill:#E9EDF7;}
	.st4{fill:#DDE2F8;}
	.st5{fill:#423EAF;}
	.st6{fill:#5652CC;}
	.st7{fill:#6B67E9;}
	.st8{fill:#FFD03E;}
	.st9{fill:#FCBA06;}
	.st10{fill:#ED9F00;}
	.st11{fill:#BBC0E6;}
	.st12{fill:#A3A9D0;}
	.st13{fill:#807DFB;}
	.st14{fill:#F6F6FB;}
	.st15{fill:#9F9CFF;}
	.st16{fill:#FAB80A;}
	.st17{fill:#EB9D01;}
	.st18{fill:#E19100;}
	.st19{fill:#F0CCC0;}
	.st20{fill:#362E94;}
	.st21{fill:#1C164B;}
</style>
<g id="Background">
	<rect y="-167.3" class="st0" width="2000" height="2000"/>
</g>
<g id="Name">
</g>
<g id="Shadow">
	<ellipse class="st1" cx="970.3" cy="1410.6" rx="698.8" ry="44.9"/>
</g>
<g id="Plants">
	<path class="st2" d="M447.3,468.8c-70.3-56.3-57.3-139.6,19.9-212.3C520.5,320,535.6,425.2,447.3,468.8z"/>
	<g>
		<path class="st3" d="M428.3,488.2c-116.8,21-188.2-64.1-193.6-203.8C343.9,286.5,461.5,362.7,428.3,488.2z"/>
		<g>
			<path class="st0" d="M428.3,490.7c-0.7,0-1.4-0.3-1.9-0.9c-14.6-17.2-41.5-44.1-70.1-72.5c-34.7-34.5-74-73.7-101-105.3
				c-0.9-1.1-0.8-2.6,0.3-3.5c1.1-0.9,2.6-0.8,3.5,0.3c26.9,31.5,66.1,70.5,100.7,105c28.6,28.5,55.6,55.4,70.4,72.8
				c0.9,1.1,0.8,2.6-0.3,3.5C429.4,490.5,428.9,490.7,428.3,490.7z"/>
		</g>
	</g>
	<path class="st2" d="M1597.7,1275.8c74.5-50.6,150.2-13.7,197.1,81.4C1718.5,1389.5,1613.4,1373,1597.7,1275.8z"/>
	<g>
		<path class="st3" d="M1584.8,1252c14.3-117.8,116.6-161.1,251.7-125.2C1802.4,1230.6,1694.9,1320.6,1584.8,1252z"/>
		<g>
			<path class="st0" d="M1584.8,1254.5c-1,0-1.9-0.6-2.3-1.5c-0.5-1.3,0-2.7,1.3-3.3c20.7-8.9,54.3-26.8,89.9-45.7
				c43.2-23,92.1-49.1,130.3-65.6c1.3-0.5,2.7,0,3.3,1.3c0.5,1.3,0,2.7-1.3,3.3c-38,16.4-86.8,42.5-129.9,65.4
				c-35.6,19-69.3,36.9-90.2,45.9C1585.5,1254.4,1585.1,1254.5,1584.8,1254.5z"/>
		</g>
	</g>
	<g>
		<path class="st3" d="M1709.5,792.3c24.2-2.7,29.7-24.9,31.9-38.4C1734.2,755.3,1704.8,762.6,1709.5,792.3z"/>
		<g>
			<path class="st3" d="M1607.9,983c-0.2,0-0.4,0-0.5-0.1c-1.3-0.3-2.2-1.6-1.9-3c10.8-49.1,43.9-125.4,104.5-192.3
				c0.9-1,2.5-1.1,3.5-0.2c1,0.9,1.1,2.5,0.2,3.5c-59.9,66.2-92.6,141.6-103.3,190C1610.1,982.2,1609.1,983,1607.9,983z"/>
		</g>
		<path class="st3" d="M1606.6,945.3c-8.6-48.3-44.6-50.3-72-52.9C1538.3,907,1547.4,958.8,1606.6,945.3z"/>
		<path class="st3" d="M1622.1,900.9c2.9-39.3-24.7-48-45.4-55.5C1576.6,857.5,1573.4,899.6,1622.1,900.9z"/>
		<path class="st3" d="M1648.2,856.9c10.4-32.2-10.9-45.1-26.8-55.5C1618.9,811.4,1607.7,846,1648.2,856.9z"/>
		<path class="st3" d="M1676.8,816.5c11.8-17.5,1.3-28.8-6.4-37.8C1667.2,784.3,1654.5,803,1676.8,816.5z"/>
		<path class="st3" d="M1631.8,949.6c27.9-33.1,56.3-18.8,78.4-8.7C1700.9,950.4,1671.1,986,1631.8,949.6z"/>
		<path class="st3" d="M1649.6,901.6c19.3-32,45.5-23.5,65.6-17.9C1708.5,893,1687.9,927.3,1649.6,901.6z"/>
		<path class="st3" d="M1679,848.3c18.7-17.3,34.3-6.9,46.5,0.6C1719.3,853.8,1699.3,872.4,1679,848.3z"/>
		<path class="st3" d="M1701.3,813.8c8.9-11.9,18.9-7.6,26.7-4.6C1725,812.6,1715.5,825.4,1701.3,813.8z"/>
	</g>
	<g>
		<g>
			<path class="st4" d="M679.7,337.8c-4.3,0-8.6-0.6-12.6-1.7c-11.9-3.3-21.3-11.4-25.7-21.9c-8.7,0.8-20.3-1.8-28.9-11.5
				c-8.7-9.8-16.7-29.5-5.6-68.1c0.4-1.3,1.8-2.1,3.1-1.7c1.3,0.4,2.1,1.8,1.7,3.1c-10.5,36.4-3.3,54.6,4.5,63.4
				c7.9,9,18.8,10.8,26.4,9.6c1.2-0.2,2.4,0.5,2.8,1.6c3.5,10,11.9,17.5,23.1,20.6c15.9,4.4,34.8-1,51.8-15c1.1-0.9,2.6-0.7,3.5,0.3
				c0.9,1.1,0.7,2.6-0.3,3.5C709.4,331.7,694,337.8,679.7,337.8z"/>
		</g>
		<g>
			<path class="st4" d="M675.4,325.1c-0.7,0-1.4,0-2.1,0c-12.5-0.5-24-5.7-30.3-13.7c-11.1-3.6-19.8-12.4-23.9-24.3
				c-6.4-18.4-1.7-41,12.9-61.8c0.8-1.1,2.4-1.4,3.5-0.6c1.1,0.8,1.4,2.4,0.6,3.5c-13.7,19.5-18.2,40.4-12.3,57.3
				c3.8,10.8,11.4,18.4,21.4,21.4c0.5,0.2,1,0.5,1.3,0.9c5.3,7.2,15.7,11.9,27,12.4c17.7,0.7,35.9-8.6,51.4-26.2
				c0.9-1,2.5-1.1,3.5-0.2c1,0.9,1.1,2.5,0.2,3.5C712.8,315.3,693.9,325.1,675.4,325.1z"/>
		</g>
		<g>
			<path class="st4" d="M663.7,315.1C663.7,315.1,663.7,315.1,663.7,315.1c-8.7,0-15.2-2.6-18.8-7.5c-9.1-6.1-13.3-14.8-12.7-26
				c1.3-24.7,26.6-53.4,36.5-58.5c1.2-0.6,2.7-0.1,3.4,1.1c0.6,1.2,0.1,2.7-1.1,3.4c-7.9,4-32.6,31.5-33.8,54.3
				c-0.5,9.4,3.2,16.7,10.9,21.8c0.3,0.2,0.5,0.4,0.7,0.7c2.5,3.7,7.8,5.7,15,5.7c0,0,0,0,0,0c18,0,45.9-12.8,62.2-36.6
				c0.8-1.1,2.3-1.4,3.5-0.6c1.1,0.8,1.4,2.3,0.6,3.5C712.7,301.5,683,315.1,663.7,315.1z"/>
		</g>
		<g>
			<path class="st4" d="M646.7,308.2c-0.6,0-1.2-0.2-1.7-0.6c-0.5-0.5-0.8-1.2-0.8-1.9c0.1-19.9,16.1-52.4,25.8-60.8
				c1-0.9,2.6-0.8,3.5,0.2c0.9,1,0.8,2.6-0.2,3.5c-8.1,7.1-22.4,35.9-23.9,54.2c20.6-3,50-14.9,56.4-20.7c1-0.9,2.6-0.8,3.5,0.2
				c0.9,1,0.8,2.6-0.2,3.5c-7.4,6.7-40.2,19.9-62.1,22.3C646.8,308.2,646.7,308.2,646.7,308.2z"/>
		</g>
		<g>
			<path class="st4" d="M646.7,308.2c-1,0-1.9-0.6-2.3-1.5c-0.5-1.3,0-2.7,1.3-3.3c18.1-7.9,38.6-16.7,61.7-40.9c1-1,2.5-1,3.5-0.1
				c1,1,1,2.5,0.1,3.5c-23.8,24.9-44.8,34-63.3,42.1C647.3,308.2,647,308.2,646.7,308.2z"/>
		</g>
		<g>
			<path class="st4" d="M651.3,306.2c-0.3,0-0.6-0.1-0.9-0.2c-1.3-0.5-1.9-1.9-1.4-3.2c7.1-18.5,40.4-54.5,56.7-61
				c1.3-0.5,2.7,0.1,3.3,1.4c0.5,1.3-0.1,2.7-1.4,3.3c-14.7,6-47.4,41.3-53.9,58.2C653.2,305.6,652.3,306.2,651.3,306.2z"/>
		</g>
		<g>
			<path class="st4" d="M550.8,447.1c-0.4,0-0.7-0.1-1.1-0.3c-1.2-0.6-1.7-2.1-1.1-3.3c19.3-39.2,80.5-123.1,92.8-133.8
				c1-0.9,2.6-0.8,3.5,0.3c0.9,1,0.8,2.6-0.3,3.5c-12.1,10.5-72.6,93.5-91.6,132.2C552.6,446.6,551.7,447.1,550.8,447.1z"/>
		</g>
	</g>
</g>
<g id="Microchip">
	<g>
		<path class="st5" d="M421.8,442.2h260c14.3,0,26,11.6,26,26v259.9c0,14.3-11.6,26-26,26h-260c-14.3,0-26-11.6-26-26V468.1
			C395.9,453.8,407.5,442.2,421.8,442.2z"/>
		<g>
			
				<rect x="600.8" y="529.4" transform="matrix(0.7071 -0.7071 0.7071 0.7071 -195.1364 592.772)" class="st6" width="34.3" height="5"/>
		</g>
		<g>
			
				<rect x="483.1" y="514.8" transform="matrix(0.7071 -0.7071 0.7071 0.7071 -233.9014 499.1766)" class="st6" width="5" height="34.3"/>
		</g>
		<g>
			
				<rect x="468.5" y="661.8" transform="matrix(0.7071 -0.7071 0.7071 0.7071 -327.4879 537.9513)" class="st6" width="34.3" height="5"/>
		</g>
		<g>
			
				<rect x="615.5" y="647.1" transform="matrix(0.7071 -0.7071 0.7071 0.7071 -288.7221 631.5265)" class="st6" width="5" height="34.3"/>
		</g>
		<g>
			<path class="st6" d="M540.8,530.7h-5v-33.5l-21.2-21.2c-0.5-0.5-0.7-1.1-0.7-1.8v-32.1h5v31.1l21.2,21.2c0.5,0.5,0.7,1.1,0.7,1.8
				V530.7z"/>
		</g>
		<g>
			<path class="st6" d="M567.8,530.7h-5v-19.3c0-0.7,0.3-1.3,0.7-1.8l21.2-21.2v-46.3h5v47.3c0,0.7-0.3,1.3-0.7,1.8l-21.2,21.2
				V530.7z"/>
		</g>
		<g>
			<path class="st6" d="M513.8,530.7h-5v-19.3L469.3,472l3.5-3.5l40.2,40.2c0.5,0.5,0.7,1.1,0.7,1.8V530.7z"/>
		</g>
		<g>
			<path class="st6" d="M594.7,530.7h-5v-7.3c0-0.7,0.3-1.3,0.7-1.8l40.2-40.2l3.5,3.5l-39.5,39.5V530.7z"/>
		</g>
		<g>
			<path class="st6" d="M415.2,636h-19.3v-5h18.3l21.2-21.1c0.5-0.5,1.1-0.7,1.8-0.7h47.3v5h-46.3l-21.2,21.1
				C416.5,635.7,415.8,636,415.2,636z"/>
		</g>
		<g>
			<path class="st6" d="M484.4,587.1h-19.3c-0.7,0-1.3-0.3-1.8-0.7l-21.2-21.1h-46.3v-5h47.3c0.7,0,1.3,0.3,1.8,0.7l21.2,21.1h18.3
				V587.1z"/>
		</g>
		<g>
			<path class="st6" d="M425.6,680.5l-3.5-3.5l40.2-40.2c0.5-0.5,1.1-0.7,1.8-0.7h20.3v5h-19.3L425.6,680.5z"/>
		</g>
		<g>
			<path class="st6" d="M484.4,560.2h-7.3c-0.7,0-1.3-0.3-1.8-0.7L442.9,527h-19v-5h20.1c0.7,0,1.3,0.3,1.8,0.7l32.5,32.5h6.2V560.2
				z"/>
		</g>
		<g>
			<path class="st6" d="M589.6,754h-5v-31.1l-21.2-21.2c-0.5-0.5-0.7-1.1-0.7-1.8v-34.5h5V699l21.2,21.2c0.5,0.5,0.7,1.1,0.7,1.8
				V754z"/>
		</g>
		<g>
			<path class="st6" d="M518.9,754h-5v-47.3c0-0.7,0.3-1.3,0.7-1.8l21.2-21.2v-18.3h5v19.3c0,0.7-0.3,1.3-0.7,1.8l-21.2,21.2V754z"
				/>
		</g>
		<g>
			<path class="st6" d="M630.7,727.8l-40.2-40.2c-0.5-0.5-0.7-1.1-0.7-1.8v-20.3h5v19.3l39.5,39.5L630.7,727.8z"/>
		</g>
		<g>
			<path class="st6" d="M472.9,714.8l-3.5-3.5l39.5-39.5v-6.2h5v7.3c0,0.7-0.3,1.3-0.7,1.8L472.9,714.8z"/>
		</g>
		<g>
			<path class="st6" d="M653.7,587.1h-34.5v-5h33.5l21.2-21.1c0.5-0.5,1.1-0.7,1.8-0.7h32.1v5h-31.1l-21.2,21.1
				C655,586.9,654.3,587.1,653.7,587.1z"/>
		</g>
		<g>
			<path class="st6" d="M707.7,636h-32.5c-0.7,0-1.3-0.3-1.8-0.7l-21.2-21.1h-33.1v-5h34.1c0.7,0,1.3,0.3,1.8,0.7l21.2,21.1h31.5
				V636z"/>
		</g>
		<g>
			<path class="st6" d="M639.5,560.2h-20.3v-5h19.3l39.5-39.5l3.5,3.5l-40.2,40.2C640.8,559.9,640.1,560.2,639.5,560.2z"/>
		</g>
		<g>
			<path class="st6" d="M679.7,680.5l-39.5-39.5h-21v-5h22.1c0.7,0,1.3,0.3,1.8,0.7l40.2,40.2L679.7,680.5z"/>
		</g>
	</g>
	<g>
		<path class="st7" d="M495.6,530.7H608c6.2,0,11.2,5,11.2,11.2v112.3c0,6.2-5,11.2-11.2,11.2H495.6c-6.2,0-11.2-5-11.2-11.2V541.9
			C484.4,535.7,489.4,530.7,495.6,530.7z"/>
		<path class="st4" d="M513.8,552.5h76c4.2,0,7.6,3.4,7.6,7.6v76c0,4.2-3.4,7.6-7.6,7.6h-76c-4.2,0-7.6-3.4-7.6-7.6v-76
			C506.2,555.9,509.6,552.5,513.8,552.5z"/>
		<rect x="516.4" y="579.2" class="st6" width="70.7" height="5.4"/>
		<rect x="516.4" y="590.7" class="st6" width="23.7" height="5.4"/>
	</g>
	<g>
		<path class="st5" d="M381.2,1066.2h-69.7c-35.3,0-64.1-28.8-64.1-64.1V658.5c0-35.3,28.8-64.1,64.1-64.1h83.7
			c2.1,0,3.8,1.7,3.8,3.8c0,2.1-1.7,3.8-3.8,3.8h-83.7c-31.2,0-56.6,25.4-56.6,56.6v343.6c0,31.2,25.4,56.6,56.6,56.6h69.7
			c2.1,0,3.8,1.7,3.8,3.8S383.3,1066.2,381.2,1066.2z"/>
	</g>
</g>
<g id="Light_bulb">
	<g>
		<path class="st5" d="M984.6,723.4c-2.1,0-3.8-1.7-3.8-3.8V537.4c0-2.1,1.7-3.8,3.8-3.8s3.8,1.7,3.8,3.8v182.2
			C988.4,721.7,986.7,723.4,984.6,723.4z"/>
	</g>
	<g>
		<path class="st6" d="M1061.8,469.3c0-5.6-3.1-10.5-7.5-12.9c4.5-2.4,7.5-7.3,7.5-12.9c0-8-6.2-14.5-13.8-14.5H921.2
			c-7.6,0-13.8,6.5-13.8,14.5c0,5.6,3.1,10.5,7.5,12.9c-4.5,2.4-7.5,7.3-7.5,12.9c0,5.6,3.1,10.5,7.5,12.9
			c-4.5,2.4-7.5,7.3-7.5,12.9c0,8,6.2,14.5,13.8,14.5l126.8,0c7.6,0,13.8-6.5,13.8-14.5c0-5.6-3.1-10.5-7.5-12.9
			C1058.8,479.8,1061.8,475,1061.8,469.3z"/>
		<path class="st7" d="M984.6,509.6l-63.4,0c0,0,10.6,23.7,13.8,25.8c3.2,2,5.2,2,10.5,2c5.3,0,39.1,0,39.1,0s33.8,0,39.1,0
			c5.3,0,7.3,0,10.5-2c3.2-2,13.8-25.8,13.8-25.8L984.6,509.6z"/>
		<g>
			<path class="st7" d="M1040.9,458.9l-112.5,0c-1.4,0-2.5-1.1-2.5-2.5c0-1.4,1.1-2.5,2.5-2.5l0,0l112.5,0c1.4,0,2.5,1.1,2.5,2.5
				C1043.4,457.8,1042.3,458.9,1040.9,458.9z"/>
		</g>
		<g>
			<path class="st7" d="M1040.9,484.7L1040.9,484.7l-112.5,0c-1.4,0-2.5-1.1-2.5-2.5c0-1.4,1.1-2.5,2.5-2.5l112.5,0
				c1.4,0,2.5,1.1,2.5,2.5S1042.3,484.7,1040.9,484.7z"/>
		</g>
	</g>
	<g>
		<path class="st8" d="M1139.2,246.5c0-85.4-69.2-154.6-154.6-154.6c-85.4,0-154.6,69.2-154.6,154.6c0,38.5,14.1,73.8,37.4,100.9
			c0.3,0.3,1.6,1.6,2,2c35.3,36.3,51.8,68.6,51.8,79.7h63.4h63.4c0-11,16.6-43.2,51.8-79.4c0.4-0.4,1.5-1.7,1.7-1.9
			C1125,320.6,1139.2,285.2,1139.2,246.5z"/>
		<path class="st9" d="M927.9,429.1c-3.9-21.4-22.4-49.7-50.7-79.8l-4.3-4.9c-23.7-27.1-36.8-61.8-36.8-97.8
			c0-81.9,66.6-148.5,148.5-148.5c81.9,0,148.5,66.6,148.5,148.5c0,36-13.1,70.8-36.8,97.8l-4.3,4.9c-28.4,30-46.8,60.1-50.7,79.8
			L927.9,429.1z"/>
		<path class="st10" d="M1065.6,122c27.8,28.7,44.9,67.8,44.9,110.8c0,38.7-18.2,76.1-43.7,105.2l-4.6,5.3
			c-30.5,32.3-50.3,64.6-54.5,85.7l33.7,0c3.9-19.7,22.4-49.7,50.7-79.8l4.3-4.9c23.7-27.1,36.8-61.8,36.8-97.8
			C1133.2,194.5,1106.2,148.6,1065.6,122z"/>
		<path class="st0" d="M866.4,172.5c-6.5,11.2-6.5,23.4,0.1,27.2c6.5,3.8,17.1-2.3,23.6-13.5c6.5-11.2,6.5-23.4-0.1-27.2
			C883.5,155.2,872.9,161.3,866.4,172.5z"/>
	</g>
	<g>
		<g>
			<path class="st8" d="M973.1,419.8h-10l0-92.9c0-19.8-10.3-39.9-30.7-59.8c-2-1.9-2-5.1-0.1-7.1c1.9-2,5.1-2,7.1-0.1
				c22.4,21.9,33.7,44.4,33.7,67L973.1,419.8z"/>
		</g>
		<g>
			<path class="st8" d="M1001.1,424.8L1001.1,424.8c-2.8,0-5-2.2-5-5l0-92.9c0-22.6,11.3-45.1,33.7-67c2-1.9,5.1-1.9,7.1,0.1
				c1.9,2,1.9,5.1-0.1,7.1c-20.4,19.9-30.7,40-30.7,59.8l0,92.9C1006.1,422.6,1003.9,424.8,1001.1,424.8z"/>
		</g>
		<g>
			<path class="st0" d="M1027.9,258.7c-0.8,0-1.6-0.4-2.1-1.1c-0.8-1.2-0.5-2.7,0.7-3.5c15-10,21.1-15,23.5-17.4
				c-5.1,0.9-15.3,4.6-19.1,6c-0.9,0.3-1.8,0.6-2.4,0.9c-1.1,0.4-2.2,0-2.9-0.9c-0.6-0.9-0.6-2.2,0.1-3c16.8-20,21.2-27.8,22.3-30.6
				c-6.6,2.5-26.3,18.3-29.9,24.4c-0.7,1.1-2.1,1.5-3.2,1c-1.2-0.6-1.7-1.9-1.2-3.1c9.6-25.2,11.3-34.1,11.5-37.1
				c-2.5,2-9,8.9-25,33.8c-0.6,1-1.9,1.4-3,1c-1.1-0.4-1.8-1.6-1.6-2.7c4.1-25.7,4.4-35.5,4.1-39.2c-4.2,6.4-12.6,28.9-15.6,41.4
				c-0.3,1.2-1.4,2-2.7,1.9c-1.2-0.1-2.2-1.2-2.2-2.4c-0.7-25.5-2.1-35.9-3-40.1c-2.8,8-6.4,31.2-8.2,47.1c-0.1,1.2-1.1,2.1-2.2,2.2
				c-1.2,0.1-2.3-0.6-2.6-1.7c-9.3-29.9-13.9-39.8-16-43.1c-1.2,8.7,2.7,39.5,4.6,45.6c0.4,1.1-0.1,2.3-1,2.9
				c-1,0.6-2.2,0.5-3.1-0.3c-20-19.1-28.2-25.1-31.5-27c3.4,8.8,23.8,36.8,27.7,40.9c1,1,0.9,2.6-0.1,3.5c-1,1-2.6,0.9-3.5-0.1
				c-2-2.1-10.2-12.9-17.2-23.1c-14-20.5-13.4-24-11.3-26c2.5-2.5,6.7-0.1,12.7,4.4c5,3.9,12,10,20.9,18.2c-0.9-5.1-1.8-11.8-2.4-18
				c-2.3-22.6,0-25.2,1-26.3c0.9-1,2.1-1.4,3.3-1.1c2.1,0.5,5.6,1.2,17.2,37c0.8-5.6,1.8-12.3,2.9-18.6c3.9-22.3,6.4-24,9.2-23.8
				c3,0.1,4.3,3.2,5.5,12.1c0.6,4.9,1.1,11.5,1.6,19.9c1.5-4.5,3.2-9.1,4.8-13.2c7.2-18.3,10.3-19.3,12.8-18.8
				c3.4,0.7,3.9,5.3,3.5,12.6c-0.2,5.4-1.1,12.9-2.4,22.3c3.6-5.3,6.8-9.9,9.5-13.7c9.6-12.9,13.1-14.6,16-13.1
				c3,1.5,4.6,5.2-5.2,32.7c9.1-8.3,22.3-18.1,27.2-17.8c1.5,0.1,2.7,0.9,3.2,2.2c0.8,1.9,2.2,5.2-17.8,30
				c14.7-5.1,19.3-5.5,20.9-2.3c1.5,2.9,0.4,6.6-26.9,24.7C1028.8,258.5,1028.3,258.7,1027.9,258.7z"/>
		</g>
	</g>
</g>
<g id="Hammer">
	<rect x="1453.4" y="952.7" class="st4" width="54.6" height="59.8"/>
	<rect x="1453.4" y="991.8" class="st2" width="54.6" height="20.7"/>
	<rect x="1508" y="965.7" class="st11" width="26.8" height="33.7"/>
	<rect x="1508" y="988.2" class="st12" width="26.8" height="11.2"/>
	<path class="st4" d="M1682.4,969.1c-7.2-10.3-19-16.4-31.5-16.4h-0.8h-115.3v59.8h131.5c6.8,0,13.5,2.3,18.8,6.6l49.8,39.6l6.4-5.2
		L1682.4,969.1z"/>
	<path class="st13" d="M1603.8,1419h-28.4c-7,0-12.7-5.7-12.7-12.7v-393.8h53.8v393.8C1616.5,1413.3,1610.8,1419,1603.8,1419z"/>
	<rect x="1562.8" y="1012.5" class="st4" width="53.8" height="70.3"/>
	<rect x="1562.8" y="1012.5" class="st11" width="53.8" height="8.6"/>
	
		<rect x="1579.3" y="1045.5" transform="matrix(-1.836970e-16 1 -1 -1.836970e-16 2662.0256 -558.1946)" class="st11" width="61.7" height="12.8"/>
	<path class="st2" d="M1666.2,1012.5c6.8,0,13.5,2.3,18.8,6.6l49.8,39.6l1.6-1.3l0,0c0,0-38.6-46.3-46.5-55.2
		c-7.7-8.7-18.8-10.3-25-10.3s-130.2,0-130.2,0v20.7H1666.2z"/>
	<circle class="st7" cx="1589.7" cy="1064.1" r="4.9"/>
	<path class="st6" d="M1603.7,1082.7v323.6c0,2.1,0.1,6-8.5,6c-5.7,0-21.1,0-30.8,0c2.2,4,6.3,6.7,11.1,6.7h28.4
		c7,0,12.7-5.7,12.7-12.7v0v-323.6H1603.7z"/>
</g>
<g id="Gear">
	<g>
		<path class="st2" d="M497,1294.3c3.5,0,6.4-2.6,6.7-6.1c0.4-3.9,0.5-7.9,0.5-12c0-4-0.2-8-0.5-12c-0.3-3.4-3.2-6.1-6.7-6.1h-10.3
			c-3.2,0-5.9-2.2-6.6-5.3c-0.7-3.5-1.7-6.9-2.7-10.2c-1-3,0.3-6.3,3-7.9l9-5.2c3-1.7,4.2-5.5,2.8-8.6c-3.4-7.3-7.4-14.2-12-20.7
			c-2-2.8-5.8-3.6-8.8-1.9l-9,5.2c-2.8,1.6-6.2,1-8.4-1.3c-2.4-2.6-4.9-5.1-7.5-7.5c-2.4-2.1-2.9-5.6-1.3-8.4l5.2-9
			c1.7-3,0.9-6.8-1.9-8.8c-6.5-4.6-13.4-8.6-20.7-12c-3.1-1.5-6.9-0.2-8.6,2.8l-5.2,9c-1.6,2.8-4.9,4-7.9,3c-3.3-1.1-6.7-2-10.2-2.7
			c-3.1-0.7-5.3-3.4-5.3-6.6v-10.3c0-3.5-2.6-6.4-6.1-6.7c-3.9-0.4-7.9-0.5-12-0.5s-8,0.2-12,0.5c-3.4,0.3-6.1,3.2-6.1,6.7v10.3
			c0,3.2-2.2,5.9-5.3,6.6c-3.5,0.7-6.9,1.7-10.2,2.7c-3,1-6.3-0.3-7.9-3l-5.2-9c-1.7-3-5.5-4.2-8.6-2.8c-7.3,3.4-14.2,7.4-20.7,12
			c-2.8,2-3.6,5.8-1.9,8.8l5.2,9c1.6,2.8,1,6.2-1.3,8.4c-2.6,2.4-5.1,4.9-7.5,7.5c-2.1,2.4-5.6,2.9-8.4,1.3l-9-5.2
			c-3-1.7-6.8-0.9-8.8,1.9c-4.6,6.5-8.6,13.4-12,20.7c-1.5,3.1-0.2,6.9,2.8,8.6l9,5.2c2.8,1.6,4,4.9,3,7.9c-1.1,3.3-2,6.7-2.7,10.2
			c-0.7,3.1-3.4,5.3-6.6,5.3h-10.3c-3.5,0-6.4,2.6-6.7,6.1c-0.4,3.9-0.5,7.9-0.5,12c0,4,0.2,8,0.5,12c0.3,3.4,3.2,6.1,6.7,6.1h10.3
			c3.2,0,5.9,2.2,6.6,5.3c0.7,3.5,1.7,6.9,2.7,10.2c1,3-0.3,6.3-3,7.9l-9,5.2c-3,1.7-4.2,5.5-2.8,8.6c3.4,7.3,7.4,14.2,12,20.7
			c2,2.8,5.8,3.6,8.8,1.9l9-5.2c2.8-1.6,6.2-1,8.4,1.3c2.4,2.6,4.9,5.1,7.5,7.5c2.4,2.1,2.9,5.6,1.3,8.4l-5.2,9
			c-1.7,3-0.9,6.8,1.9,8.8c6.5,4.6,13.4,8.6,20.7,12c3.1,1.5,6.9,0.2,8.6-2.8l5.2-9c1.6-2.8,4.9-4,7.9-3c3.3,1.1,6.7,2,10.2,2.7
			c3.1,0.7,5.3,3.4,5.3,6.6v10.3c0,3.5,2.6,6.4,6.1,6.7c3.9,0.4,7.9,0.5,12,0.5s8-0.2,12-0.5c3.4-0.3,6.1-3.2,6.1-6.7v-10.3
			c0-3.2,2.2-5.9,5.3-6.6c3.5-0.7,6.9-1.7,10.2-2.7c3-1,6.3,0.3,7.9,3l5.2,9c1.7,3,5.5,4.2,8.6,2.8c7.3-3.4,14.2-7.4,20.7-12
			c2.8-2,3.6-5.8,1.9-8.8l-5.2-9c-1.6-2.8-1-6.2,1.3-8.4c2.6-2.4,5.1-4.9,7.5-7.5c2.1-2.4,5.6-2.9,8.4-1.3l9,5.2
			c3,1.7,6.8,0.9,8.8-1.9c4.6-6.5,8.6-13.4,12-20.7c1.5-3.1,0.2-6.9-2.8-8.6l-9-5.2c-2.8-1.6-4-4.9-3-7.9c1.1-3.3,2-6.7,2.7-10.2
			c0.7-3.1,3.4-5.3,6.6-5.3H497z M372.5,1327.5c-28.3,0-51.2-22.9-51.2-51.2c0-28.3,22.9-51.2,51.2-51.2c28.3,0,51.2,22.9,51.2,51.2
			C423.7,1304.6,400.8,1327.5,372.5,1327.5z"/>
		<path class="st11" d="M372.5,1208.9c-37.2,0-67.4,30.2-67.4,67.4c0,37.2,30.2,67.4,67.4,67.4c37.2,0,67.4-30.2,67.4-67.4
			C440,1239.1,409.8,1208.9,372.5,1208.9z M372.5,1327.5c-28.3,0-51.2-22.9-51.2-51.2c0-28.3,22.9-51.2,51.2-51.2
			c28.3,0,51.2,22.9,51.2,51.2C423.7,1304.6,400.8,1327.5,372.5,1327.5z"/>
		<g>
			<path class="st11" d="M338.1,1359c-0.2,0-0.3,0-0.5-0.1c-33.2-14.1-54.7-46.5-54.7-82.6c0-49.4,40.2-89.6,89.6-89.6
				c0.7,0,1.2,0.6,1.2,1.2s-0.6,1.2-1.2,1.2c-48,0-87.1,39.1-87.1,87.1c0,35.1,20.9,66.6,53.2,80.3c0.6,0.3,0.9,1,0.7,1.6
				C339.1,1358.7,338.6,1359,338.1,1359z"/>
		</g>
		<g>
			<path class="st11" d="M372.5,1365.9c-0.7,0-1.2-0.6-1.2-1.2s0.6-1.2,1.2-1.2c48,0,87.1-39.1,87.1-87.1c0-0.7,0.6-1.2,1.2-1.2
				s1.2,0.6,1.2,1.2C462.1,1325.7,421.9,1365.9,372.5,1365.9z"/>
		</g>
	</g>
</g>
<g id="Frame">
	<path class="st4" d="M504.2,719.6v638.3c0,27.9,22.8,50.7,50.7,50.7h830.6c27.9,0,50.7-22.8,50.7-50.7V719.6H504.2z"/>
	<path class="st14" d="M515.2,719.6c0,21.2,0,638.3,0,638.3c0,21.9,17.8,39.8,39.8,39.8h830.6c21.9,0,39.8-17.8,39.8-39.8
		c0,0,0-617.1,0-638.3C1387,719.6,527.5,719.6,515.2,719.6z"/>
	<g>
		<path class="st13" d="M1436.3,702.1c0-27.9-22.8-50.7-50.7-50.7H555c-27.9,0-50.7,22.8-50.7,50.7v17.5h932.1V702.1z"/>
		
			<ellipse transform="matrix(6.948227e-02 -0.9976 0.9976 6.948227e-02 -59.0078 1312.6611)" class="st0" cx="674.1" cy="688" rx="13.8" ry="13.8"/>
		<path class="st0" d="M609.7,703.5c-2.8,0-3.9-2-2.5-4.3l14.1-24.4c1.4-2.4,3.6-2.4,5,0l14.1,24.4c1.4,2.4,0.3,4.3-2.5,4.3H609.7z"
			/>
		<path class="st0" d="M556.5,678.4c0-2.3,1.9-4.2,4.2-4.2h19.2c2.3,0,4.2,1.9,4.2,4.2v19.2c0,2.3-1.9,4.2-4.2,4.2h-19.2
			c-2.3,0-4.2-1.9-4.2-4.2V678.4z"/>
	</g>
	<g>
		<path class="st15" d="M1303.2,695.4c0,5.6-4.6,10.1-10.1,10.1H737.8c-5.6,0-10.2-4.6-10.2-10.1v-19.7c0-5.6,4.6-10.1,10.2-10.1
			H1293c5.6,0,10.1,4.6,10.1,10.1V695.4z"/>
	</g>
</g>
<g id="Code">
	<g>
		<rect x="706.3" y="774.9" class="st4" width="655.1" height="7.5"/>
		<rect x="606.6" y="774.9" class="st4" width="67.5" height="7.5"/>
	</g>
	<g>
		<rect x="756.1" y="809.9" class="st4" width="457.1" height="7.5"/>
		<rect x="687.9" y="809.9" class="st4" width="36" height="7.5"/>
	</g>
	<g>
		<rect x="756.1" y="844.9" class="st4" width="411" height="7.5"/>
		<rect x="687.9" y="844.9" class="st4" width="36" height="7.5"/>
	</g>
	<g>
		<rect x="756.1" y="879.9" class="st4" width="411" height="7.5"/>
		<rect x="687.9" y="879.9" class="st4" width="36" height="7.5"/>
	</g>
	<g>
		<rect x="756.1" y="914.9" class="st4" width="377" height="7.5"/>
		<rect x="687.9" y="914.9" class="st4" width="36" height="7.5"/>
	</g>
	<g>
		<rect x="756.1" y="949.9" class="st4" width="377" height="7.5"/>
		<rect x="687.9" y="949.9" class="st4" width="36" height="7.5"/>
	</g>
	<g>
		<rect x="756.1" y="984.9" class="st4" width="411" height="7.5"/>
		<rect x="687.9" y="984.9" class="st4" width="36" height="7.5"/>
	</g>
	<g>
		<rect x="756.1" y="1019.9" class="st4" width="411" height="7.5"/>
		<rect x="687.9" y="1019.9" class="st4" width="36" height="7.5"/>
	</g>
	<g>
		<rect x="756.1" y="1054.9" class="st4" width="411" height="7.5"/>
		<rect x="687.9" y="1054.9" class="st4" width="36" height="7.5"/>
	</g>
	<g>
		<rect x="756.1" y="1089.9" class="st4" width="411" height="7.5"/>
		<rect x="687.9" y="1089.9" class="st4" width="36" height="7.5"/>
	</g>
	<g>
		<rect x="756.1" y="1124.9" class="st4" width="380.6" height="7.5"/>
		<rect x="687.9" y="1124.9" class="st4" width="36" height="7.5"/>
	</g>
	<g>
		<rect x="756.1" y="1159.9" class="st4" width="535.2" height="7.5"/>
		<rect x="687.9" y="1159.9" class="st4" width="36" height="7.5"/>
	</g>
	<g>
		<rect x="756.1" y="1194.9" class="st4" width="460.7" height="7.5"/>
		<rect x="687.9" y="1194.9" class="st4" width="36" height="7.5"/>
	</g>
	<g>
		<rect x="756.1" y="1229.9" class="st4" width="380.6" height="7.5"/>
		<rect x="687.9" y="1229.9" class="st4" width="36" height="7.5"/>
	</g>
	<g>
		<rect x="756.1" y="1264.9" class="st4" width="503.2" height="7.5"/>
		<rect x="687.9" y="1264.9" class="st4" width="36" height="7.5"/>
	</g>
	<g>
		<rect x="756.1" y="1299.9" class="st4" width="380.6" height="7.5"/>
		<rect x="687.9" y="1299.9" class="st4" width="36" height="7.5"/>
	</g>
</g>
<g id="Ruller">
	<g>
		<rect x="960.5" y="1320.8" class="st16" width="571.4" height="98.2"/>
		<path class="st17" d="M1499.9,1356.8c8.8,0,15.9,7.1,15.9,15.9c0,8.8-7.1,15.9-15.9,15.9c-8.8,0-15.9-7.1-15.9-15.9
			C1484,1364,1491.1,1356.8,1499.9,1356.8z"/>
		<path class="st0" d="M1499.9,1364.5c4.5,0,8.2,3.7,8.2,8.2c0,4.5-3.7,8.2-8.2,8.2c-4.5,0-8.2-3.7-8.2-8.2
			C1491.7,1368.2,1495.4,1364.5,1499.9,1364.5z"/>
		<path class="st18" d="M1113.7,1333.7v-12.9h-7.4v12.9c0,2,1.6,3.7,3.7,3.7C1112.1,1337.4,1113.7,1335.7,1113.7,1333.7z
			 M1140.4,1333.7l0-12.9h-7.4l0,12.9c0,2,1.6,3.7,3.7,3.7C1138.8,1337.4,1140.4,1335.7,1140.4,1333.7z M1510.5,1337.4
			c2,0,3.7-1.6,3.7-3.7v-12.9h-7.4v12.9C1506.8,1335.7,1508.5,1337.4,1510.5,1337.4z M1167.1,1333.7l0-12.9l-7.4,0v12.9
			c0,2,1.6,3.7,3.7,3.7C1165.5,1337.4,1167.1,1335.7,1167.1,1333.7z M1247.2,1333.7l0-12.9h-7.4v12.9c0,2,1.7,3.7,3.7,3.7
			C1245.6,1337.4,1247.2,1335.7,1247.2,1333.7z M1434.1,1333.7v-12.9h-7.4l0,12.9c0,2,1.7,3.7,3.7,3.7
			C1432.5,1337.4,1434.1,1335.7,1434.1,1333.7z M1380.7,1333.7v-12.9h-7.4l0,12.9c0,2,1.6,3.7,3.7,3.7
			C1379.1,1337.4,1380.7,1335.7,1380.7,1333.7z M1193.8,1333.7l0-12.9h-7.4v12.9c0,2,1.7,3.7,3.7,3.7
			C1192.2,1337.4,1193.8,1335.7,1193.8,1333.7z M1460.8,1333.7l0-12.9h-7.4v12.9c0,2,1.6,3.7,3.7,3.7
			C1459.2,1337.4,1460.8,1335.7,1460.8,1333.7z M1487.5,1333.7v-12.9h-7.4v12.9c0,2,1.6,3.7,3.7,3.7
			C1485.9,1337.4,1487.5,1335.7,1487.5,1333.7z M1407.4,1333.7v-12.9h-7.4l0,12.9c0,2,1.6,3.7,3.7,3.7
			C1405.8,1337.4,1407.4,1335.7,1407.4,1333.7z M1354,1333.7v-12.9h-7.4l0,12.9c0,2,1.7,3.7,3.7,3.7
			C1352.4,1337.4,1354,1335.7,1354,1333.7z M1220.5,1333.7v-12.9h-7.4l0,12.9c0,2,1.7,3.7,3.7,3.7
			C1218.9,1337.4,1220.5,1335.7,1220.5,1333.7z M1083.3,1337.4c2,0,3.7-1.7,3.7-3.7l0-12.9h-7.4l0,12.9
			C1079.6,1335.7,1081.3,1337.4,1083.3,1337.4z M1056.6,1337.4c2,0,3.7-1.6,3.7-3.7v-12.9l-7.4,0l0,12.9
			C1052.9,1335.7,1054.6,1337.4,1056.6,1337.4z M1029.9,1337.4c2,0,3.7-1.6,3.7-3.7v-12.9h-7.4l0,12.9
			C1026.2,1335.7,1027.9,1337.4,1029.9,1337.4z M1003.2,1337.4c2,0,3.7-1.6,3.7-3.7l0-12.9h-7.4v12.9
			C999.5,1335.7,1001.2,1337.4,1003.2,1337.4z M1273.9,1333.7v-12.9h-7.4l0,12.9c0,2,1.6,3.7,3.7,3.7
			C1272.3,1337.4,1273.9,1335.7,1273.9,1333.7z M1300.6,1333.7v-12.9h-7.4v12.9c0,2,1.6,3.7,3.7,3.7
			C1299,1337.4,1300.6,1335.7,1300.6,1333.7z M1327.3,1333.7l0-12.9h-7.4v12.9c0,2,1.7,3.7,3.7,3.7
			C1325.7,1337.4,1327.3,1335.7,1327.3,1333.7z"/>
	</g>
</g>
<g id="Wrench">
	<g>
		<path class="st11" d="M661.2,1296.3L659,951.6c28-12.5,47.5-40.6,47.3-73.2c-0.2-31.1-18.2-57.9-44.4-70.8l0.5,76.5
			c0.1,10.7-8.6,19.5-19.3,19.6l-32.4,0.2c-10.7,0.1-19.5-8.6-19.6-19.3l-0.5-76.5c-25.9,13.2-43.6,40.3-43.4,71.4
			c0.2,32.6,20.1,60.5,48.3,72.6l2.3,344.7c-21.7,11.6-36.3,34.5-36.1,60.7c0.2,37.7,31,68.1,68.8,67.9c37.7-0.2,68.1-31,67.9-68.8
			C698,1330.3,683,1307.6,661.2,1296.3z M647.1,1386.4l-34.1,0.2l-17.2-29.4l16.9-29.6l34.1-0.2l17.2,29.4L647.1,1386.4z"/>
		<path class="st12" d="M627.4,984c-5.6,0-10,4.6-10,10.1l1.8,279.3c0,5.6,4.6,10,10.1,10c5.6,0,10-4.6,10-10.1L637.5,994
			C637.5,988.4,633,983.9,627.4,984z"/>
	</g>
</g>
<g id="SCircles_with_symbols">
	
		<ellipse transform="matrix(0.7071 -0.7071 0.7071 0.7071 -460.611 1375.799)" class="st7" cx="1430.4" cy="1243.9" rx="76.9" ry="76.9"/>
	<g>
		
			<rect x="1445.6" y="1240.6" transform="matrix(-1 -1.224647e-16 1.224647e-16 -1 2897.7556 2487.8123)" class="st0" width="6.6" height="6.6"/>
		
			<rect x="1427.1" y="1240.6" transform="matrix(-1 -1.224647e-16 1.224647e-16 -1 2860.8616 2487.8123)" class="st0" width="6.6" height="6.6"/>
		
			<rect x="1408.7" y="1240.6" transform="matrix(-1 -1.224647e-16 1.224647e-16 -1 2823.967 2487.8123)" class="st0" width="6.6" height="6.6"/>
		<g>
			<path class="st0" d="M1408.7,1276.5h-6.8c-7,0-12.7-5.7-12.7-12.7v-10.2c0-4.3-3.5-7.7-7.7-7.7v-5c4.3,0,7.7-3.5,7.7-7.7v-10.2
				c0-7,5.7-12.7,12.7-12.7h6.8v5h-6.8c-4.3,0-7.7,3.5-7.7,7.7v10.2c0,4.2-2,7.9-5.2,10.2c3.1,2.3,5.2,6,5.2,10.2v10.2
				c0,4.3,3.5,7.7,7.7,7.7h6.8V1276.5z"/>
		</g>
		<g>
			<path class="st0" d="M1456.3,1276.5h-6.8v-5h6.8c4.3,0,7.7-3.5,7.7-7.7v-10.2c0-4.2,2-7.9,5.2-10.2c-3.1-2.3-5.2-6-5.2-10.2
				v-10.2c0-4.3-3.5-7.7-7.7-7.7h-6.8v-5h6.8c7,0,12.7,5.7,12.7,12.7v10.2c0,4.3,3.5,7.7,7.7,7.7v5c-4.3,0-7.7,3.5-7.7,7.7v10.2
				C1469.1,1270.8,1463.4,1276.5,1456.3,1276.5z"/>
		</g>
	</g>
	<g>
		<circle class="st9" cx="412" cy="1059.3" r="87.2"/>
		<g>
			<path class="st0" d="M395.3,1095.4c-0.4,0-0.8-0.1-1.1-0.3c-1.2-0.6-1.7-2.1-1.1-3.4l34-68.1c0.6-1.2,2.1-1.7,3.4-1.1
				c1.2,0.6,1.7,2.1,1.1,3.4l-34,68.1C397.1,1094.9,396.2,1095.4,395.3,1095.4z"/>
		</g>
		<g>
			<path class="st0" d="M386.3,1083.5c-0.5,0-1-0.1-1.4-0.4l-31.6-21.7c-0.7-0.5-1.1-1.2-1.1-2.1s0.4-1.6,1.1-2.1l31.6-21.7
				c1.1-0.8,2.7-0.5,3.5,0.6c0.8,1.1,0.5,2.7-0.6,3.5l-28.6,19.7l28.6,19.7c1.1,0.8,1.4,2.3,0.6,3.5
				C387.9,1083.1,387.1,1083.5,386.3,1083.5z"/>
		</g>
		<g>
			<path class="st0" d="M439.5,1083.5c-0.8,0-1.6-0.4-2.1-1.1c-0.8-1.1-0.5-2.7,0.6-3.5l28.6-19.7l-28.6-19.7
				c-1.1-0.8-1.4-2.3-0.6-3.5c0.8-1.1,2.3-1.4,3.5-0.6l31.6,21.7c0.7,0.5,1.1,1.2,1.1,2.1s-0.4,1.6-1.1,2.1l-31.6,21.7
				C440.5,1083.3,440,1083.5,439.5,1083.5z"/>
		</g>
	</g>
</g>
<g id="Man">
	<g>
		<path class="st19" d="M1499.2,827.2c0.5-2.6,0-7.1,0-7.1l18.4,3.5c1.1,4.6,0.3,8.3,0,12.5C1512.7,837,1507,831.3,1499.2,827.2z"/>
		<path class="st5" d="M1499.2,827.2c7.8,4,13.5,9.8,18.4,8.9c2.1,2.2,34.9,21.6,38,24.7c3.2,3.2,1.9,7-2,6.3
			c-5.7-1.1-52.1-12.1-52.1-12.1c-1.1,0.8-2.1,1.7-2.1,1.7l-10.7-2C1486.6,848.6,1490.6,832.2,1499.2,827.2z"/>
		<path class="st20" d="M1524.8,627.4c16.2,30.7,0.9,143.2-7.2,196.3c0,0-9.2-1.7-18.4-3.5c-6.1-44.5-21.8-88.1-28.8-177.9
			c0,0-110.9,28.6-155.3-11.5c-20.9-18.9-31.2-41.1-36.5-67.3h79.1C1357.8,563.5,1508.6,596.7,1524.8,627.4z"/>
	</g>
	<path class="st19" d="M1374.1,306.6c-0.7,4.5-7.6,50.7-14.5,52.1c-6.9,1.4-21.1-10.4-24.5-2.8c-3.5,7.6-5.2,17.9-5.2,17.9
		c-7.2-1.4-32.4-13.8-32.4-13.8c4.3-8.5,10.4-19.3,10.4-38.3c0-19-0.6-49.3,41.8-41.8C1376.9,284.9,1376,295.1,1374.1,306.6z"/>
	<path class="st21" d="M1374.6,303.5c4.5,1.9,7.1,0.7,12.1-4.3c5-5,20.1-21.9-11.8-25c-31.9-3.1-56.7-12.8-67.4,10.7
		c-10.7,23.5-2.4,43.8,0,46.2c2.4,2.4,0.7-36.5,10.2-35.2c5.7,0.8-2.6,34.8-2.9,52.2c3.1,4.1,11.6,7.4,25.1,12.6
		c13.5,5.2,17.6,9,22.5-4.7c4.8-13.7,4.8-13.7,4.8-13.7c-18.8-5.7-11.8,4.2-23.5,0c-11.6-4.1-14-6-15-9.6c-1-3.6,4.4-40.6,8.6-41.2
		C1341.4,291.1,1362.9,298.6,1374.6,303.5z"/>
	<g>
		<path class="st19" d="M1424.2,836.7c0-3.6,0-6.5,0-6.5h17.7c0.2,6,1.4,9.3,2,11.8C1439.4,843.7,1432.6,839.2,1424.2,836.7z"/>
		<path class="st5" d="M1424.2,836.7c8.4,2.5,15.1,7.1,19.7,5.3c2.4,1.8,38.3,14.7,42,17.2c3.7,2.6,3.2,6.5-0.8,6.5
			c-5.8,0-53.4-2.1-53.4-2.1c-1,1-1.8,2.1-1.8,2.1h-10.9C1415.8,860,1416.7,843.1,1424.2,836.7z"/>
		<path class="st5" d="M1495,627.4c16.2,30.7-42.8,173-53,202.8c0,0-8.3,0-17.7,0c-8.5-46-6.4-145.7,17.4-171.8c0,0-67.7,0.3-147-7
			c-28-2.6-41.7-46.3-41.7-87.9h104.8C1357.8,563.5,1478.8,596.7,1495,627.4z"/>
	</g>
	<path class="st7" d="M1297.5,360.1c0,0,19.9,9.3,32.4,13.8c46.2,55.9,27.8,164.1,27.8,189.5h-104.8c-5.7-28.3-5.2-61.4-5.9-100
		C1245.8,390.2,1273.3,369.1,1297.5,360.1z"/>
	<g>
		<path class="st11" d="M1384.9,571.6l113.6,35.3c2.2,0.7,4.5-0.5,5.2-2.7l1.5-4.9l-121.5-37.8l-1.5,4.9
			C1381.5,568.6,1382.7,571,1384.9,571.6z"/>
		<path class="st11" d="M1515,601.8l73.3-93.7c1.4-1.8,1.1-4.4-0.7-5.8l-4-3.1l-78.4,100.2l4,3.1
			C1511,603.9,1513.6,603.6,1515,601.8z"/>
		
			<rect x="1490.6" y="594.3" transform="matrix(-0.9549 -0.297 0.297 -0.9549 2744.6904 1607.2378)" class="st13" width="7.7" height="1.7"/>
		
			<rect x="1478.6" y="590.6" transform="matrix(-0.9549 -0.297 0.297 -0.9549 2722.3394 1596.3724)" class="st13" width="7.7" height="1.7"/>
		
			<rect x="1466.6" y="586.8" transform="matrix(-0.9549 -0.297 0.297 -0.9549 2699.9795 1585.5173)" class="st13" width="7.7" height="1.7"/>
		
			<rect x="1454.6" y="583.1" transform="matrix(-0.9549 -0.297 0.297 -0.9549 2677.6304 1574.6497)" class="st13" width="7.7" height="1.7"/>
		
			<rect x="1442.6" y="579.4" transform="matrix(-0.9549 -0.2969 0.2969 -0.9549 2655.3079 1563.7489)" class="st13" width="7.7" height="1.7"/>
		
			<rect x="1430.6" y="575.6" transform="matrix(-0.9549 -0.2969 0.2969 -0.9549 2632.9492 1552.8928)" class="st13" width="7.7" height="1.7"/>
	</g>
	<path class="st13" d="M1290.1,380c-11.1-4.6-35.1,3.6-43.1,42.4c-6.3,30.5-14.4,110.3,2.1,112c16.4,1.6,161.6,24.6,161.6,24.6
		c0.8-3.3,3.3-14.8,3.3-14.8c-12.7-2-126.3-48.4-129.6-50.4C1288.9,490.1,1337,399.4,1290.1,380z"/>
	<path class="st19" d="M1410.9,557.7c1.5-6.5,2.7-12.1,2.7-12.1c6.9,1,26.4,6.4,29.4,8.2c6.5,4.3,15.8,16.6,14.3,18.7
		c-0.6,0.8-3.4-1-6.7-3.6c2.6,6.9,4.2,13.5,2,12.8c-2.6-0.7-6-6-9-10.6c0.7,3.6,1,6.7-1.5,6.6c-1.6,0-6-8.2-7.1-13.2
		C1431.1,565.7,1424.9,566.3,1410.9,557.7z"/>
</g>
<g id="Secondary_shapes">
	<path class="st8" d="M350.6,110.9l-28,5.7c-2.2,0.4-4,2-4.7,4.1l-9.1,27.1c-0.7,2.1-0.2,4.5,1.2,6.1l18.9,21.4
		c1.5,1.7,3.7,2.4,5.9,2l28-5.7c2.2-0.4,4-2,4.7-4.1l9.1-27.1c0.7-2.1,0.2-4.5-1.2-6.1l-18.9-21.4
		C355,111.2,352.8,110.4,350.6,110.9z"/>
	<path class="st7" d="M1800,566.5l-6.3,44.1c-0.7,4.8-6.3,7-10.1,4l-35-27.5c-3.8-3-2.9-8.9,1.5-10.7l41.3-16.6
		C1796,558.1,1800.7,561.8,1800,566.5z"/>
</g>
</svg>
